<?xml version="1.0" encoding="utf-8" standalone="no"?>
<!DOCTYPE svg PUBLIC "-//W3C//DTD SVG 1.1//EN"
  "http://www.w3.org/Graphics/SVG/1.1/DTD/svg11.dtd">
<svg xmlns:xlink="http://www.w3.org/1999/xlink" width="460.8pt" height="345.6pt" viewBox="0 0 460.8 345.6" xmlns="http://www.w3.org/2000/svg" version="1.1">
 <metadata>
  <rdf:RDF xmlns:dc="http://purl.org/dc/elements/1.1/" xmlns:cc="http://creativecommons.org/ns#" xmlns:rdf="http://www.w3.org/1999/02/22-rdf-syntax-ns#">
   <cc:Work>
    <dc:type rdf:resource="http://purl.org/dc/dcmitype/StillImage"/>
    <dc:date>2024-08-23T12:32:18.792649</dc:date>
    <dc:format>image/svg+xml</dc:format>
    <dc:creator>
     <cc:Agent>
      <dc:title>Matplotlib v3.9.1, https://matplotlib.org/</dc:title>
     </cc:Agent>
    </dc:creator>
   </cc:Work>
  </rdf:RDF>
 </metadata>
 <defs>
  <style type="text/css">*{stroke-linejoin: round; stroke-linecap: butt}</style>
 </defs>
 <g id="figure_1">
  <g id="patch_1">
   <path d="M 0 345.6 
L 460.8 345.6 
L 460.8 0 
L 0 0 
z
" style="fill: #ffffff"/>
  </g>
  <g id="axes_1">
   <g id="patch_2">
    <path d="M 57.6 307.584 
L 414.72 307.584 
L 414.72 41.472 
L 57.6 41.472 
z
" style="fill: #ffffff"/>
   </g>
   <g id="matplotlib.axis_1">
    <g id="xtick_1">
     <g id="line2d_1">
      <defs>
       <path id="m54dc9f3451" d="M 0 0 
L 0 3.5 
" style="stroke: #000000; stroke-width: 0.8"/>
      </defs>
      <g>
       <use xlink:href="#m54dc9f3451" x="81.989877" y="307.584" style="stroke: #000000; stroke-width: 0.8"/>
      </g>
     </g>
     <g id="text_1">
      <!-- 2025 -->
      <g transform="translate(69.264877 322.182437) scale(0.1 -0.1)">
       <defs>
        <path id="DejaVuSans-32" d="M 1228 531 
L 3431 531 
L 3431 0 
L 469 0 
L 469 531 
Q 828 903 1448 1529 
Q 2069 2156 2228 2338 
Q 2531 2678 2651 2914 
Q 2772 3150 2772 3378 
Q 2772 3750 2511 3984 
Q 2250 4219 1831 4219 
Q 1534 4219 1204 4116 
Q 875 4013 500 3803 
L 500 4441 
Q 881 4594 1212 4672 
Q 1544 4750 1819 4750 
Q 2544 4750 2975 4387 
Q 3406 4025 3406 3419 
Q 3406 3131 3298 2873 
Q 3191 2616 2906 2266 
Q 2828 2175 2409 1742 
Q 1991 1309 1228 531 
z
" transform="scale(0.015625)"/>
        <path id="DejaVuSans-30" d="M 2034 4250 
Q 1547 4250 1301 3770 
Q 1056 3291 1056 2328 
Q 1056 1369 1301 889 
Q 1547 409 2034 409 
Q 2525 409 2770 889 
Q 3016 1369 3016 2328 
Q 3016 3291 2770 3770 
Q 2525 4250 2034 4250 
z
M 2034 4750 
Q 2819 4750 3233 4129 
Q 3647 3509 3647 2328 
Q 3647 1150 3233 529 
Q 2819 -91 2034 -91 
Q 1250 -91 836 529 
Q 422 1150 422 2328 
Q 422 3509 836 4129 
Q 1250 4750 2034 4750 
z
" transform="scale(0.015625)"/>
        <path id="DejaVuSans-35" d="M 691 4666 
L 3169 4666 
L 3169 4134 
L 1269 4134 
L 1269 2991 
Q 1406 3038 1543 3061 
Q 1681 3084 1819 3084 
Q 2600 3084 3056 2656 
Q 3513 2228 3513 1497 
Q 3513 744 3044 326 
Q 2575 -91 1722 -91 
Q 1428 -91 1123 -41 
Q 819 9 494 109 
L 494 744 
Q 775 591 1075 516 
Q 1375 441 1709 441 
Q 2250 441 2565 725 
Q 2881 1009 2881 1497 
Q 2881 1984 2565 2268 
Q 2250 2553 1709 2553 
Q 1456 2553 1204 2497 
Q 953 2441 691 2322 
L 691 4666 
z
" transform="scale(0.015625)"/>
       </defs>
       <use xlink:href="#DejaVuSans-32"/>
       <use xlink:href="#DejaVuSans-30" x="63.623047"/>
       <use xlink:href="#DejaVuSans-32" x="127.246094"/>
       <use xlink:href="#DejaVuSans-35" x="190.869141"/>
      </g>
     </g>
    </g>
    <g id="xtick_2">
     <g id="line2d_2">
      <g>
       <use xlink:href="#m54dc9f3451" x="122.775624" y="307.584" style="stroke: #000000; stroke-width: 0.8"/>
      </g>
     </g>
     <g id="text_2">
      <!-- 2050 -->
      <g transform="translate(110.050624 322.182437) scale(0.1 -0.1)">
       <use xlink:href="#DejaVuSans-32"/>
       <use xlink:href="#DejaVuSans-30" x="63.623047"/>
       <use xlink:href="#DejaVuSans-35" x="127.246094"/>
       <use xlink:href="#DejaVuSans-30" x="190.869141"/>
      </g>
     </g>
    </g>
    <g id="xtick_3">
     <g id="line2d_3">
      <g>
       <use xlink:href="#m54dc9f3451" x="163.56137" y="307.584" style="stroke: #000000; stroke-width: 0.8"/>
      </g>
     </g>
     <g id="text_3">
      <!-- 2075 -->
      <g transform="translate(150.83637 322.182437) scale(0.1 -0.1)">
       <defs>
        <path id="DejaVuSans-37" d="M 525 4666 
L 3525 4666 
L 3525 4397 
L 1831 0 
L 1172 0 
L 2766 4134 
L 525 4134 
L 525 4666 
z
" transform="scale(0.015625)"/>
       </defs>
       <use xlink:href="#DejaVuSans-32"/>
       <use xlink:href="#DejaVuSans-30" x="63.623047"/>
       <use xlink:href="#DejaVuSans-37" x="127.246094"/>
       <use xlink:href="#DejaVuSans-35" x="190.869141"/>
      </g>
     </g>
    </g>
    <g id="xtick_4">
     <g id="line2d_4">
      <g>
       <use xlink:href="#m54dc9f3451" x="204.347117" y="307.584" style="stroke: #000000; stroke-width: 0.8"/>
      </g>
     </g>
     <g id="text_4">
      <!-- 2100 -->
      <g transform="translate(191.622117 322.182437) scale(0.1 -0.1)">
       <defs>
        <path id="DejaVuSans-31" d="M 794 531 
L 1825 531 
L 1825 4091 
L 703 3866 
L 703 4441 
L 1819 4666 
L 2450 4666 
L 2450 531 
L 3481 531 
L 3481 0 
L 794 0 
L 794 531 
z
" transform="scale(0.015625)"/>
       </defs>
       <use xlink:href="#DejaVuSans-32"/>
       <use xlink:href="#DejaVuSans-31" x="63.623047"/>
       <use xlink:href="#DejaVuSans-30" x="127.246094"/>
       <use xlink:href="#DejaVuSans-30" x="190.869141"/>
      </g>
     </g>
    </g>
    <g id="xtick_5">
     <g id="line2d_5">
      <g>
       <use xlink:href="#m54dc9f3451" x="245.132864" y="307.584" style="stroke: #000000; stroke-width: 0.8"/>
      </g>
     </g>
     <g id="text_5">
      <!-- 2125 -->
      <g transform="translate(232.407864 322.182437) scale(0.1 -0.1)">
       <use xlink:href="#DejaVuSans-32"/>
       <use xlink:href="#DejaVuSans-31" x="63.623047"/>
       <use xlink:href="#DejaVuSans-32" x="127.246094"/>
       <use xlink:href="#DejaVuSans-35" x="190.869141"/>
      </g>
     </g>
    </g>
    <g id="xtick_6">
     <g id="line2d_6">
      <g>
       <use xlink:href="#m54dc9f3451" x="285.918611" y="307.584" style="stroke: #000000; stroke-width: 0.8"/>
      </g>
     </g>
     <g id="text_6">
      <!-- 2150 -->
      <g transform="translate(273.193611 322.182437) scale(0.1 -0.1)">
       <use xlink:href="#DejaVuSans-32"/>
       <use xlink:href="#DejaVuSans-31" x="63.623047"/>
       <use xlink:href="#DejaVuSans-35" x="127.246094"/>
       <use xlink:href="#DejaVuSans-30" x="190.869141"/>
      </g>
     </g>
    </g>
    <g id="xtick_7">
     <g id="line2d_7">
      <g>
       <use xlink:href="#m54dc9f3451" x="326.704358" y="307.584" style="stroke: #000000; stroke-width: 0.8"/>
      </g>
     </g>
     <g id="text_7">
      <!-- 2175 -->
      <g transform="translate(313.979358 322.182437) scale(0.1 -0.1)">
       <use xlink:href="#DejaVuSans-32"/>
       <use xlink:href="#DejaVuSans-31" x="63.623047"/>
       <use xlink:href="#DejaVuSans-37" x="127.246094"/>
       <use xlink:href="#DejaVuSans-35" x="190.869141"/>
      </g>
     </g>
    </g>
    <g id="xtick_8">
     <g id="line2d_8">
      <g>
       <use xlink:href="#m54dc9f3451" x="367.490105" y="307.584" style="stroke: #000000; stroke-width: 0.8"/>
      </g>
     </g>
     <g id="text_8">
      <!-- 2200 -->
      <g transform="translate(354.765105 322.182437) scale(0.1 -0.1)">
       <use xlink:href="#DejaVuSans-32"/>
       <use xlink:href="#DejaVuSans-32" x="63.623047"/>
       <use xlink:href="#DejaVuSans-30" x="127.246094"/>
       <use xlink:href="#DejaVuSans-30" x="190.869141"/>
      </g>
     </g>
    </g>
    <g id="xtick_9">
     <g id="line2d_9">
      <g>
       <use xlink:href="#m54dc9f3451" x="408.275852" y="307.584" style="stroke: #000000; stroke-width: 0.8"/>
      </g>
     </g>
     <g id="text_9">
      <!-- 2225 -->
      <g transform="translate(395.550852 322.182437) scale(0.1 -0.1)">
       <use xlink:href="#DejaVuSans-32"/>
       <use xlink:href="#DejaVuSans-32" x="63.623047"/>
       <use xlink:href="#DejaVuSans-32" x="127.246094"/>
       <use xlink:href="#DejaVuSans-35" x="190.869141"/>
      </g>
     </g>
    </g>
    <g id="text_10">
     <!-- Year -->
     <g transform="translate(225.5725 335.860562) scale(0.1 -0.1)">
      <defs>
       <path id="DejaVuSans-59" d="M -13 4666 
L 666 4666 
L 1959 2747 
L 3244 4666 
L 3922 4666 
L 2272 2222 
L 2272 0 
L 1638 0 
L 1638 2222 
L -13 4666 
z
" transform="scale(0.015625)"/>
       <path id="DejaVuSans-65" d="M 3597 1894 
L 3597 1613 
L 953 1613 
Q 991 1019 1311 708 
Q 1631 397 2203 397 
Q 2534 397 2845 478 
Q 3156 559 3463 722 
L 3463 178 
Q 3153 47 2828 -22 
Q 2503 -91 2169 -91 
Q 1331 -91 842 396 
Q 353 884 353 1716 
Q 353 2575 817 3079 
Q 1281 3584 2069 3584 
Q 2775 3584 3186 3129 
Q 3597 2675 3597 1894 
z
M 3022 2063 
Q 3016 2534 2758 2815 
Q 2500 3097 2075 3097 
Q 1594 3097 1305 2825 
Q 1016 2553 972 2059 
L 3022 2063 
z
" transform="scale(0.015625)"/>
       <path id="DejaVuSans-61" d="M 2194 1759 
Q 1497 1759 1228 1600 
Q 959 1441 959 1056 
Q 959 750 1161 570 
Q 1363 391 1709 391 
Q 2188 391 2477 730 
Q 2766 1069 2766 1631 
L 2766 1759 
L 2194 1759 
z
M 3341 1997 
L 3341 0 
L 2766 0 
L 2766 531 
Q 2569 213 2275 61 
Q 1981 -91 1556 -91 
Q 1019 -91 701 211 
Q 384 513 384 1019 
Q 384 1609 779 1909 
Q 1175 2209 1959 2209 
L 2766 2209 
L 2766 2266 
Q 2766 2663 2505 2880 
Q 2244 3097 1772 3097 
Q 1472 3097 1187 3025 
Q 903 2953 641 2809 
L 641 3341 
Q 956 3463 1253 3523 
Q 1550 3584 1831 3584 
Q 2591 3584 2966 3190 
Q 3341 2797 3341 1997 
z
" transform="scale(0.015625)"/>
       <path id="DejaVuSans-72" d="M 2631 2963 
Q 2534 3019 2420 3045 
Q 2306 3072 2169 3072 
Q 1681 3072 1420 2755 
Q 1159 2438 1159 1844 
L 1159 0 
L 581 0 
L 581 3500 
L 1159 3500 
L 1159 2956 
Q 1341 3275 1631 3429 
Q 1922 3584 2338 3584 
Q 2397 3584 2469 3576 
Q 2541 3569 2628 3553 
L 2631 2963 
z
" transform="scale(0.015625)"/>
      </defs>
      <use xlink:href="#DejaVuSans-59"/>
      <use xlink:href="#DejaVuSans-65" x="47.833984"/>
      <use xlink:href="#DejaVuSans-61" x="109.357422"/>
      <use xlink:href="#DejaVuSans-72" x="170.636719"/>
     </g>
    </g>
   </g>
   <g id="matplotlib.axis_2">
    <g id="ytick_1">
     <g id="line2d_10">
      <defs>
       <path id="m7b73c16273" d="M 0 0 
L -3.5 0 
" style="stroke: #000000; stroke-width: 0.8"/>
      </defs>
      <g>
       <use xlink:href="#m7b73c16273" x="57.6" y="284.130982" style="stroke: #000000; stroke-width: 0.8"/>
      </g>
     </g>
     <g id="text_11">
      <!-- −6 -->
      <g transform="translate(35.857813 287.930201) scale(0.1 -0.1)">
       <defs>
        <path id="DejaVuSans-2212" d="M 678 2272 
L 4684 2272 
L 4684 1741 
L 678 1741 
L 678 2272 
z
" transform="scale(0.015625)"/>
        <path id="DejaVuSans-36" d="M 2113 2584 
Q 1688 2584 1439 2293 
Q 1191 2003 1191 1497 
Q 1191 994 1439 701 
Q 1688 409 2113 409 
Q 2538 409 2786 701 
Q 3034 994 3034 1497 
Q 3034 2003 2786 2293 
Q 2538 2584 2113 2584 
z
M 3366 4563 
L 3366 3988 
Q 3128 4100 2886 4159 
Q 2644 4219 2406 4219 
Q 1781 4219 1451 3797 
Q 1122 3375 1075 2522 
Q 1259 2794 1537 2939 
Q 1816 3084 2150 3084 
Q 2853 3084 3261 2657 
Q 3669 2231 3669 1497 
Q 3669 778 3244 343 
Q 2819 -91 2113 -91 
Q 1303 -91 875 529 
Q 447 1150 447 2328 
Q 447 3434 972 4092 
Q 1497 4750 2381 4750 
Q 2619 4750 2861 4703 
Q 3103 4656 3366 4563 
z
" transform="scale(0.015625)"/>
       </defs>
       <use xlink:href="#DejaVuSans-2212"/>
       <use xlink:href="#DejaVuSans-36" x="83.789062"/>
      </g>
     </g>
    </g>
    <g id="ytick_2">
     <g id="line2d_11">
      <g>
       <use xlink:href="#m7b73c16273" x="57.6" y="250.845493" style="stroke: #000000; stroke-width: 0.8"/>
      </g>
     </g>
     <g id="text_12">
      <!-- −4 -->
      <g transform="translate(35.857813 254.644712) scale(0.1 -0.1)">
       <defs>
        <path id="DejaVuSans-34" d="M 2419 4116 
L 825 1625 
L 2419 1625 
L 2419 4116 
z
M 2253 4666 
L 3047 4666 
L 3047 1625 
L 3713 1625 
L 3713 1100 
L 3047 1100 
L 3047 0 
L 2419 0 
L 2419 1100 
L 313 1100 
L 313 1709 
L 2253 4666 
z
" transform="scale(0.015625)"/>
       </defs>
       <use xlink:href="#DejaVuSans-2212"/>
       <use xlink:href="#DejaVuSans-34" x="83.789062"/>
      </g>
     </g>
    </g>
    <g id="ytick_3">
     <g id="line2d_12">
      <g>
       <use xlink:href="#m7b73c16273" x="57.6" y="217.560004" style="stroke: #000000; stroke-width: 0.8"/>
      </g>
     </g>
     <g id="text_13">
      <!-- −2 -->
      <g transform="translate(35.857813 221.359223) scale(0.1 -0.1)">
       <use xlink:href="#DejaVuSans-2212"/>
       <use xlink:href="#DejaVuSans-32" x="83.789062"/>
      </g>
     </g>
    </g>
    <g id="ytick_4">
     <g id="line2d_13">
      <g>
       <use xlink:href="#m7b73c16273" x="57.6" y="184.274515" style="stroke: #000000; stroke-width: 0.8"/>
      </g>
     </g>
     <g id="text_14">
      <!-- 0 -->
      <g transform="translate(44.2375 188.073733) scale(0.1 -0.1)">
       <use xlink:href="#DejaVuSans-30"/>
      </g>
     </g>
    </g>
    <g id="ytick_5">
     <g id="line2d_14">
      <g>
       <use xlink:href="#m7b73c16273" x="57.6" y="150.989025" style="stroke: #000000; stroke-width: 0.8"/>
      </g>
     </g>
     <g id="text_15">
      <!-- 2 -->
      <g transform="translate(44.2375 154.788244) scale(0.1 -0.1)">
       <use xlink:href="#DejaVuSans-32"/>
      </g>
     </g>
    </g>
    <g id="ytick_6">
     <g id="line2d_15">
      <g>
       <use xlink:href="#m7b73c16273" x="57.6" y="117.703536" style="stroke: #000000; stroke-width: 0.8"/>
      </g>
     </g>
     <g id="text_16">
      <!-- 4 -->
      <g transform="translate(44.2375 121.502755) scale(0.1 -0.1)">
       <use xlink:href="#DejaVuSans-34"/>
      </g>
     </g>
    </g>
    <g id="ytick_7">
     <g id="line2d_16">
      <g>
       <use xlink:href="#m7b73c16273" x="57.6" y="84.418047" style="stroke: #000000; stroke-width: 0.8"/>
      </g>
     </g>
     <g id="text_17">
      <!-- 6 -->
      <g transform="translate(44.2375 88.217266) scale(0.1 -0.1)">
       <use xlink:href="#DejaVuSans-36"/>
      </g>
     </g>
    </g>
    <g id="ytick_8">
     <g id="line2d_17">
      <g>
       <use xlink:href="#m7b73c16273" x="57.6" y="51.132558" style="stroke: #000000; stroke-width: 0.8"/>
      </g>
     </g>
     <g id="text_18">
      <!-- 8 -->
      <g transform="translate(44.2375 54.931777) scale(0.1 -0.1)">
       <defs>
        <path id="DejaVuSans-38" d="M 2034 2216 
Q 1584 2216 1326 1975 
Q 1069 1734 1069 1313 
Q 1069 891 1326 650 
Q 1584 409 2034 409 
Q 2484 409 2743 651 
Q 3003 894 3003 1313 
Q 3003 1734 2745 1975 
Q 2488 2216 2034 2216 
z
M 1403 2484 
Q 997 2584 770 2862 
Q 544 3141 544 3541 
Q 544 4100 942 4425 
Q 1341 4750 2034 4750 
Q 2731 4750 3128 4425 
Q 3525 4100 3525 3541 
Q 3525 3141 3298 2862 
Q 3072 2584 2669 2484 
Q 3125 2378 3379 2068 
Q 3634 1759 3634 1313 
Q 3634 634 3220 271 
Q 2806 -91 2034 -91 
Q 1263 -91 848 271 
Q 434 634 434 1313 
Q 434 1759 690 2068 
Q 947 2378 1403 2484 
z
M 1172 3481 
Q 1172 3119 1398 2916 
Q 1625 2713 2034 2713 
Q 2441 2713 2670 2916 
Q 2900 3119 2900 3481 
Q 2900 3844 2670 4047 
Q 2441 4250 2034 4250 
Q 1625 4250 1398 4047 
Q 1172 3844 1172 3481 
z
" transform="scale(0.015625)"/>
       </defs>
       <use xlink:href="#DejaVuSans-38"/>
      </g>
     </g>
    </g>
    <g id="text_19">
     <!-- % GDP -->
     <g transform="translate(29.778125 191.606906) rotate(-90) scale(0.1 -0.1)">
      <defs>
       <path id="DejaVuSans-25" d="M 4653 2053 
Q 4381 2053 4226 1822 
Q 4072 1591 4072 1178 
Q 4072 772 4226 539 
Q 4381 306 4653 306 
Q 4919 306 5073 539 
Q 5228 772 5228 1178 
Q 5228 1588 5073 1820 
Q 4919 2053 4653 2053 
z
M 4653 2450 
Q 5147 2450 5437 2106 
Q 5728 1763 5728 1178 
Q 5728 594 5436 251 
Q 5144 -91 4653 -91 
Q 4153 -91 3862 251 
Q 3572 594 3572 1178 
Q 3572 1766 3864 2108 
Q 4156 2450 4653 2450 
z
M 1428 4353 
Q 1159 4353 1004 4120 
Q 850 3888 850 3481 
Q 850 3069 1003 2837 
Q 1156 2606 1428 2606 
Q 1700 2606 1854 2837 
Q 2009 3069 2009 3481 
Q 2009 3884 1853 4118 
Q 1697 4353 1428 4353 
z
M 4250 4750 
L 4750 4750 
L 1831 -91 
L 1331 -91 
L 4250 4750 
z
M 1428 4750 
Q 1922 4750 2215 4408 
Q 2509 4066 2509 3481 
Q 2509 2891 2217 2550 
Q 1925 2209 1428 2209 
Q 931 2209 642 2551 
Q 353 2894 353 3481 
Q 353 4063 643 4406 
Q 934 4750 1428 4750 
z
" transform="scale(0.015625)"/>
       <path id="DejaVuSans-20" transform="scale(0.015625)"/>
       <path id="DejaVuSans-47" d="M 3809 666 
L 3809 1919 
L 2778 1919 
L 2778 2438 
L 4434 2438 
L 4434 434 
Q 4069 175 3628 42 
Q 3188 -91 2688 -91 
Q 1594 -91 976 548 
Q 359 1188 359 2328 
Q 359 3472 976 4111 
Q 1594 4750 2688 4750 
Q 3144 4750 3555 4637 
Q 3966 4525 4313 4306 
L 4313 3634 
Q 3963 3931 3569 4081 
Q 3175 4231 2741 4231 
Q 1884 4231 1454 3753 
Q 1025 3275 1025 2328 
Q 1025 1384 1454 906 
Q 1884 428 2741 428 
Q 3075 428 3337 486 
Q 3600 544 3809 666 
z
" transform="scale(0.015625)"/>
       <path id="DejaVuSans-44" d="M 1259 4147 
L 1259 519 
L 2022 519 
Q 2988 519 3436 956 
Q 3884 1394 3884 2338 
Q 3884 3275 3436 3711 
Q 2988 4147 2022 4147 
L 1259 4147 
z
M 628 4666 
L 1925 4666 
Q 3281 4666 3915 4102 
Q 4550 3538 4550 2338 
Q 4550 1131 3912 565 
Q 3275 0 1925 0 
L 628 0 
L 628 4666 
z
" transform="scale(0.015625)"/>
       <path id="DejaVuSans-50" d="M 1259 4147 
L 1259 2394 
L 2053 2394 
Q 2494 2394 2734 2622 
Q 2975 2850 2975 3272 
Q 2975 3691 2734 3919 
Q 2494 4147 2053 4147 
L 1259 4147 
z
M 628 4666 
L 2053 4666 
Q 2838 4666 3239 4311 
Q 3641 3956 3641 3272 
Q 3641 2581 3239 2228 
Q 2838 1875 2053 1875 
L 1259 1875 
L 1259 0 
L 628 0 
L 628 4666 
z
" transform="scale(0.015625)"/>
      </defs>
      <use xlink:href="#DejaVuSans-25"/>
      <use xlink:href="#DejaVuSans-20" x="95.019531"/>
      <use xlink:href="#DejaVuSans-47" x="126.806641"/>
      <use xlink:href="#DejaVuSans-44" x="204.296875"/>
      <use xlink:href="#DejaVuSans-50" x="281.298828"/>
     </g>
    </g>
   </g>
   <g id="line2d_18">
    <path d="M 73.832727 68.89869 
L 75.464157 64.666204 
L 77.095587 53.568 
L 78.727017 66.170365 
L 80.358447 62.585569 
L 83.621307 87.154052 
L 85.252736 86.928471 
L 86.884166 98.878961 
L 88.515596 103.480737 
L 91.778456 125.218756 
L 93.409886 125.796114 
L 96.672746 141.186529 
L 98.304175 147.123312 
L 99.935605 144.675668 
L 101.567035 149.046087 
L 103.198465 152.91738 
L 106.461325 159.546837 
L 108.092755 161.977532 
L 109.724185 157.214281 
L 111.355614 159.538346 
L 112.987044 161.668645 
L 117.881334 167.141234 
L 119.512764 168.676378 
L 121.144194 164.721173 
L 122.775624 166.035981 
L 127.669913 170.338557 
L 129.301343 171.571177 
L 132.564203 173.494776 
L 134.195633 174.352045 
L 135.827063 171.828702 
L 139.089922 173.813742 
L 140.721352 174.692635 
L 148.878502 178.1027 
L 152.141361 178.729396 
L 155.404221 179.491251 
L 157.035651 178.247614 
L 158.667081 178.876801 
L 163.56137 179.922878 
L 165.1928 180.467309 
L 173.34995 182.19138 
L 181.507099 183.288493 
L 183.138529 182.932503 
L 194.558538 184.355573 
L 215.767127 186.870793 
L 219.029986 187.178286 
L 222.292846 187.529609 
L 223.924276 187.642306 
L 228.818566 188.440052 
L 230.449995 188.506763 
L 232.081425 188.730414 
L 235.344285 188.821691 
L 240.238575 189.345193 
L 246.764294 189.861691 
L 253.290014 190.503234 
L 258.184303 190.814347 
L 261.447163 191.049094 
L 267.972883 191.425169 
L 269.604312 191.430802 
L 274.498602 191.785549 
L 276.130032 191.719352 
L 290.812901 192.418278 
L 294.075761 192.391702 
L 298.97005 192.515864 
L 300.60148 192.459201 
L 303.86434 192.566213 
L 328.335788 192.173585 
L 333.230078 191.913735 
L 338.124367 191.676848 
L 339.755797 191.783833 
L 341.387227 191.457391 
L 356.070096 190.321977 
L 360.964386 190.180329 
L 362.595815 190.344093 
L 364.227245 191.574986 
L 365.858675 192.533436 
L 367.490105 191.77197 
L 369.121535 191.281429 
L 370.752965 190.952695 
L 372.384395 190.327377 
L 374.015825 189.542964 
L 375.647254 189.365765 
L 378.910114 188.694508 
L 387.067264 187.150924 
L 391.961553 186.002758 
L 398.487273 184.274524 
L 398.487273 184.274524 
" clip-path="url(#p6f03587b2a)" style="fill: none; stroke: #1f77b4; stroke-width: 1.5; stroke-linecap: square"/>
   </g>
   <g id="line2d_19">
    <path d="M 73.832727 212.40061 
L 75.464157 208.584217 
L 78.727017 193.733637 
L 81.989877 186.491523 
L 83.621307 182.627101 
L 85.252736 181.829721 
L 86.884166 180.235535 
L 88.515596 179.995645 
L 90.147026 179.617554 
L 91.778456 180.227508 
L 93.409886 180.141038 
L 95.041316 180.58694 
L 98.304175 184.176473 
L 99.935605 183.018132 
L 101.567035 183.749705 
L 103.198465 184.08219 
L 104.829895 185.905997 
L 106.461325 187.247747 
L 108.092755 189.14171 
L 109.724185 186.608826 
L 111.355614 187.350535 
L 112.987044 186.064207 
L 114.618474 185.459855 
L 116.249904 185.481332 
L 117.881334 186.152015 
L 119.512764 187.406928 
L 121.144194 185.948195 
L 122.775624 186.679038 
L 126.038483 186.594047 
L 129.301343 186.820907 
L 130.932773 187.087569 
L 132.564203 187.553905 
L 134.195633 188.185324 
L 135.827063 187.319351 
L 137.458492 187.840517 
L 142.352782 187.933681 
L 143.984212 187.931784 
L 148.878502 188.410031 
L 153.772791 188.777738 
L 155.404221 189.008696 
L 157.035651 188.451842 
L 160.298511 188.864595 
L 163.56137 188.878153 
L 168.45566 188.868849 
L 171.71852 188.973729 
L 179.875669 189.019515 
L 181.507099 189.053011 
L 183.138529 188.705328 
L 186.401389 188.76548 
L 189.664249 188.543583 
L 201.084258 188.312075 
L 210.872837 188.554898 
L 253.290014 189.925848 
L 263.078593 190.042558 
L 266.341453 190.111992 
L 269.604312 190.246522 
L 271.235742 190.376625 
L 272.867172 190.175231 
L 285.918611 190.304073 
L 287.550041 190.424872 
L 289.181471 190.248703 
L 297.33862 190.165532 
L 300.60148 190.192388 
L 307.1272 190.107853 
L 313.652919 189.909693 
L 334.861508 189.182859 
L 352.807236 188.297371 
L 360.964386 187.811494 
L 362.595815 187.509991 
L 364.227245 187.422842 
L 365.858675 187.160782 
L 370.752965 186.857463 
L 372.384395 186.817402 
L 374.015825 187.215648 
L 380.541544 186.690508 
L 388.698693 185.745727 
L 398.487273 184.274523 
L 398.487273 184.274523 
" clip-path="url(#p6f03587b2a)" style="fill: none; stroke: #ff7f0e; stroke-width: 1.5; stroke-linecap: square"/>
   </g>
   <g id="line2d_20">
    <path d="M 73.832727 191.220211 
L 75.464157 191.515981 
L 77.095587 188.993939 
L 78.727017 191.253075 
L 80.358447 191.230481 
L 81.989877 191.380452 
L 83.621307 192.692506 
L 85.252736 194.216258 
L 86.884166 194.663993 
L 88.515596 194.763375 
L 90.147026 195.129448 
L 91.778456 194.521772 
L 93.409886 194.520903 
L 95.041316 193.854815 
L 96.672746 193.646769 
L 98.304175 193.138294 
L 99.935605 192.865186 
L 101.567035 192.032123 
L 106.461325 190.991777 
L 108.092755 190.95003 
L 109.724185 190.533043 
L 111.355614 191.066219 
L 112.987044 190.903456 
L 114.618474 190.866592 
L 117.881334 190.604073 
L 119.512764 191.097975 
L 121.144194 190.58353 
L 122.775624 191.184742 
L 124.407053 191.032933 
L 126.038483 191.101362 
L 130.932773 190.768624 
L 132.564203 190.938845 
L 134.195633 191.278983 
L 135.827063 190.649324 
L 137.458492 191.017778 
L 139.089922 191.139795 
L 148.878502 190.732061 
L 155.404221 191.008799 
L 157.035651 190.495499 
L 161.929941 190.81147 
L 166.82423 190.585207 
L 170.08709 190.370411 
L 176.61281 190.302673 
L 179.875669 190.191533 
L 181.507099 190.14351 
L 183.138529 189.854061 
L 189.664249 189.722417 
L 192.927108 189.52872 
L 196.189968 189.425758 
L 197.821398 189.20075 
L 201.084258 189.066744 
L 202.715688 189.093193 
L 207.609977 188.888408 
L 209.241407 188.839363 
L 210.872837 189.028736 
L 214.135697 188.918553 
L 215.767127 189.004294 
L 217.398556 188.878997 
L 219.029986 188.900231 
L 220.661416 188.611385 
L 223.924276 189.0572 
L 227.187136 188.93737 
L 235.344285 189.158262 
L 238.607145 189.13466 
L 241.870005 189.242327 
L 264.710023 189.524971 
L 266.341453 189.307341 
L 267.972883 189.518057 
L 274.498602 189.585774 
L 284.287181 189.562669 
L 307.1272 189.433455 
L 308.75863 189.379149 
L 310.390059 189.52252 
L 313.652919 189.441499 
L 315.284349 189.486888 
L 318.547209 189.386882 
L 325.072928 189.213226 
L 328.335788 189.050891 
L 329.967218 187.793055 
L 331.598648 189.130143 
L 334.861508 188.967166 
L 354.438666 188.214275 
L 369.121535 187.476079 
L 377.278684 186.867889 
L 385.435834 186.048239 
L 393.592983 185.003962 
L 398.487273 184.274521 
L 398.487273 184.274521 
" clip-path="url(#p6f03587b2a)" style="fill: none; stroke: #2ca02c; stroke-width: 1.5; stroke-linecap: square"/>
   </g>
   <g id="line2d_21">
    <path d="M 73.832727 295.488 
L 75.464157 286.698526 
L 77.095587 275.789156 
L 78.727017 277.907643 
L 80.358447 271.502109 
L 81.989877 273.16925 
L 83.621307 274.504371 
L 85.252736 269.729444 
L 86.884166 270.786811 
L 88.515596 268.250318 
L 90.147026 269.173367 
L 91.778456 269.285094 
L 93.409886 265.681343 
L 95.041316 265.528821 
L 96.672746 266.426878 
L 98.304175 266.070699 
L 99.935605 261.51095 
L 101.567035 260.428704 
L 103.198465 259.991262 
L 104.829895 259.20498 
L 106.461325 258.659852 
L 108.092755 257.553717 
L 109.724185 252.61914 
L 111.355614 251.310793 
L 112.987044 250.521534 
L 114.618474 250.205945 
L 116.249904 249.113558 
L 117.881334 248.699794 
L 119.512764 247.695997 
L 121.144194 244.120061 
L 124.407053 242.601059 
L 126.038483 243.02343 
L 127.669913 241.384745 
L 129.301343 241.352599 
L 130.932773 240.380457 
L 132.564203 238.209348 
L 134.195633 237.306875 
L 135.827063 234.780049 
L 137.458492 233.045755 
L 139.089922 233.418005 
L 140.721352 232.332623 
L 142.352782 230.267097 
L 143.984212 229.156542 
L 145.615642 230.033748 
L 148.878502 228.538608 
L 152.141361 227.296734 
L 153.772791 227.624554 
L 155.404221 227.117106 
L 157.035651 226.111423 
L 158.667081 225.280102 
L 160.298511 224.865645 
L 161.929941 224.32686 
L 163.56137 223.478454 
L 165.1928 223.533821 
L 166.82423 223.292086 
L 168.45566 223.585791 
L 171.71852 222.081935 
L 173.34995 221.359881 
L 174.98138 221.254131 
L 176.61281 220.553713 
L 178.244239 220.228506 
L 179.875669 219.62062 
L 181.507099 218.255514 
L 183.138529 217.642387 
L 184.769959 215.982313 
L 186.401389 215.621787 
L 189.664249 214.21558 
L 191.295678 212.083051 
L 197.821398 208.07838 
L 199.452828 207.491038 
L 201.084258 206.703608 
L 205.978547 205.344469 
L 217.398556 204.281345 
L 220.661416 204.513637 
L 222.292846 204.693781 
L 223.924276 204.221681 
L 225.555706 203.966925 
L 230.449995 203.982702 
L 233.712855 204.47581 
L 235.344285 204.811794 
L 240.238575 205.407141 
L 246.764294 205.711649 
L 248.395724 206.016422 
L 251.658584 205.608699 
L 253.290014 205.971131 
L 254.921444 206.478574 
L 256.552873 206.781683 
L 263.078593 207.355099 
L 264.710023 207.221795 
L 266.341453 207.349336 
L 267.972883 207.597557 
L 269.604312 207.551336 
L 271.235742 207.228036 
L 272.867172 207.198851 
L 276.130032 207.509762 
L 277.761462 207.648644 
L 279.392892 207.638899 
L 282.655751 208.017461 
L 285.918611 208.085175 
L 287.550041 208.386091 
L 289.181471 208.233184 
L 290.812901 208.301614 
L 292.444331 208.131488 
L 297.33862 208.495339 
L 298.97005 209.292691 
L 300.60148 208.739945 
L 302.23291 208.644637 
L 303.86434 208.978219 
L 305.49577 209.78447 
L 307.1272 209.562465 
L 308.75863 209.225335 
L 310.390059 208.374297 
L 312.021489 209.071163 
L 313.652919 209.224449 
L 315.284349 209.556684 
L 316.915779 209.140004 
L 318.547209 209.712998 
L 321.810069 209.486579 
L 323.441498 209.28507 
L 329.967218 209.16627 
L 338.124367 208.757445 
L 346.281517 208.102082 
L 352.807236 207.362347 
L 359.332956 206.385158 
L 364.227245 205.459294 
L 367.490105 204.701692 
L 370.752965 203.772873 
L 374.015825 202.644333 
L 377.278684 201.264331 
L 380.541544 199.608786 
L 383.804404 197.663089 
L 387.067264 195.352084 
L 390.330123 192.695235 
L 393.592983 189.644345 
L 396.855843 186.166759 
L 398.487273 184.274418 
L 398.487273 184.274418 
" clip-path="url(#p6f03587b2a)" style="fill: none; stroke: #d62728; stroke-width: 1.5; stroke-linecap: square"/>
   </g>
   <g id="patch_3">
    <path d="M 57.6 307.584 
L 57.6 41.472 
" style="fill: none; stroke: #000000; stroke-width: 0.8; stroke-linejoin: miter; stroke-linecap: square"/>
   </g>
   <g id="patch_4">
    <path d="M 414.72 307.584 
L 414.72 41.472 
" style="fill: none; stroke: #000000; stroke-width: 0.8; stroke-linejoin: miter; stroke-linecap: square"/>
   </g>
   <g id="patch_5">
    <path d="M 57.6 307.584 
L 414.72 307.584 
" style="fill: none; stroke: #000000; stroke-width: 0.8; stroke-linejoin: miter; stroke-linecap: square"/>
   </g>
   <g id="patch_6">
    <path d="M 57.6 41.472 
L 414.72 41.472 
" style="fill: none; stroke: #000000; stroke-width: 0.8; stroke-linejoin: miter; stroke-linecap: square"/>
   </g>
   <g id="text_20">
    <!-- (60% subsidy treaty, P(conflict)=5%) -->
    <g transform="translate(124.952813 35.472) scale(0.12 -0.12)">
     <defs>
      <path id="DejaVuSans-28" d="M 1984 4856 
Q 1566 4138 1362 3434 
Q 1159 2731 1159 2009 
Q 1159 1288 1364 580 
Q 1569 -128 1984 -844 
L 1484 -844 
Q 1016 -109 783 600 
Q 550 1309 550 2009 
Q 550 2706 781 3412 
Q 1013 4119 1484 4856 
L 1984 4856 
z
" transform="scale(0.015625)"/>
      <path id="DejaVuSans-73" d="M 2834 3397 
L 2834 2853 
Q 2591 2978 2328 3040 
Q 2066 3103 1784 3103 
Q 1356 3103 1142 2972 
Q 928 2841 928 2578 
Q 928 2378 1081 2264 
Q 1234 2150 1697 2047 
L 1894 2003 
Q 2506 1872 2764 1633 
Q 3022 1394 3022 966 
Q 3022 478 2636 193 
Q 2250 -91 1575 -91 
Q 1294 -91 989 -36 
Q 684 19 347 128 
L 347 722 
Q 666 556 975 473 
Q 1284 391 1588 391 
Q 1994 391 2212 530 
Q 2431 669 2431 922 
Q 2431 1156 2273 1281 
Q 2116 1406 1581 1522 
L 1381 1569 
Q 847 1681 609 1914 
Q 372 2147 372 2553 
Q 372 3047 722 3315 
Q 1072 3584 1716 3584 
Q 2034 3584 2315 3537 
Q 2597 3491 2834 3397 
z
" transform="scale(0.015625)"/>
      <path id="DejaVuSans-75" d="M 544 1381 
L 544 3500 
L 1119 3500 
L 1119 1403 
Q 1119 906 1312 657 
Q 1506 409 1894 409 
Q 2359 409 2629 706 
Q 2900 1003 2900 1516 
L 2900 3500 
L 3475 3500 
L 3475 0 
L 2900 0 
L 2900 538 
Q 2691 219 2414 64 
Q 2138 -91 1772 -91 
Q 1169 -91 856 284 
Q 544 659 544 1381 
z
M 1991 3584 
L 1991 3584 
z
" transform="scale(0.015625)"/>
      <path id="DejaVuSans-62" d="M 3116 1747 
Q 3116 2381 2855 2742 
Q 2594 3103 2138 3103 
Q 1681 3103 1420 2742 
Q 1159 2381 1159 1747 
Q 1159 1113 1420 752 
Q 1681 391 2138 391 
Q 2594 391 2855 752 
Q 3116 1113 3116 1747 
z
M 1159 2969 
Q 1341 3281 1617 3432 
Q 1894 3584 2278 3584 
Q 2916 3584 3314 3078 
Q 3713 2572 3713 1747 
Q 3713 922 3314 415 
Q 2916 -91 2278 -91 
Q 1894 -91 1617 61 
Q 1341 213 1159 525 
L 1159 0 
L 581 0 
L 581 4863 
L 1159 4863 
L 1159 2969 
z
" transform="scale(0.015625)"/>
      <path id="DejaVuSans-69" d="M 603 3500 
L 1178 3500 
L 1178 0 
L 603 0 
L 603 3500 
z
M 603 4863 
L 1178 4863 
L 1178 4134 
L 603 4134 
L 603 4863 
z
" transform="scale(0.015625)"/>
      <path id="DejaVuSans-64" d="M 2906 2969 
L 2906 4863 
L 3481 4863 
L 3481 0 
L 2906 0 
L 2906 525 
Q 2725 213 2448 61 
Q 2172 -91 1784 -91 
Q 1150 -91 751 415 
Q 353 922 353 1747 
Q 353 2572 751 3078 
Q 1150 3584 1784 3584 
Q 2172 3584 2448 3432 
Q 2725 3281 2906 2969 
z
M 947 1747 
Q 947 1113 1208 752 
Q 1469 391 1925 391 
Q 2381 391 2643 752 
Q 2906 1113 2906 1747 
Q 2906 2381 2643 2742 
Q 2381 3103 1925 3103 
Q 1469 3103 1208 2742 
Q 947 2381 947 1747 
z
" transform="scale(0.015625)"/>
      <path id="DejaVuSans-79" d="M 2059 -325 
Q 1816 -950 1584 -1140 
Q 1353 -1331 966 -1331 
L 506 -1331 
L 506 -850 
L 844 -850 
Q 1081 -850 1212 -737 
Q 1344 -625 1503 -206 
L 1606 56 
L 191 3500 
L 800 3500 
L 1894 763 
L 2988 3500 
L 3597 3500 
L 2059 -325 
z
" transform="scale(0.015625)"/>
      <path id="DejaVuSans-74" d="M 1172 4494 
L 1172 3500 
L 2356 3500 
L 2356 3053 
L 1172 3053 
L 1172 1153 
Q 1172 725 1289 603 
Q 1406 481 1766 481 
L 2356 481 
L 2356 0 
L 1766 0 
Q 1100 0 847 248 
Q 594 497 594 1153 
L 594 3053 
L 172 3053 
L 172 3500 
L 594 3500 
L 594 4494 
L 1172 4494 
z
" transform="scale(0.015625)"/>
      <path id="DejaVuSans-2c" d="M 750 794 
L 1409 794 
L 1409 256 
L 897 -744 
L 494 -744 
L 750 256 
L 750 794 
z
" transform="scale(0.015625)"/>
      <path id="DejaVuSans-63" d="M 3122 3366 
L 3122 2828 
Q 2878 2963 2633 3030 
Q 2388 3097 2138 3097 
Q 1578 3097 1268 2742 
Q 959 2388 959 1747 
Q 959 1106 1268 751 
Q 1578 397 2138 397 
Q 2388 397 2633 464 
Q 2878 531 3122 666 
L 3122 134 
Q 2881 22 2623 -34 
Q 2366 -91 2075 -91 
Q 1284 -91 818 406 
Q 353 903 353 1747 
Q 353 2603 823 3093 
Q 1294 3584 2113 3584 
Q 2378 3584 2631 3529 
Q 2884 3475 3122 3366 
z
" transform="scale(0.015625)"/>
      <path id="DejaVuSans-6f" d="M 1959 3097 
Q 1497 3097 1228 2736 
Q 959 2375 959 1747 
Q 959 1119 1226 758 
Q 1494 397 1959 397 
Q 2419 397 2687 759 
Q 2956 1122 2956 1747 
Q 2956 2369 2687 2733 
Q 2419 3097 1959 3097 
z
M 1959 3584 
Q 2709 3584 3137 3096 
Q 3566 2609 3566 1747 
Q 3566 888 3137 398 
Q 2709 -91 1959 -91 
Q 1206 -91 779 398 
Q 353 888 353 1747 
Q 353 2609 779 3096 
Q 1206 3584 1959 3584 
z
" transform="scale(0.015625)"/>
      <path id="DejaVuSans-6e" d="M 3513 2113 
L 3513 0 
L 2938 0 
L 2938 2094 
Q 2938 2591 2744 2837 
Q 2550 3084 2163 3084 
Q 1697 3084 1428 2787 
Q 1159 2491 1159 1978 
L 1159 0 
L 581 0 
L 581 3500 
L 1159 3500 
L 1159 2956 
Q 1366 3272 1645 3428 
Q 1925 3584 2291 3584 
Q 2894 3584 3203 3211 
Q 3513 2838 3513 2113 
z
" transform="scale(0.015625)"/>
      <path id="DejaVuSans-66" d="M 2375 4863 
L 2375 4384 
L 1825 4384 
Q 1516 4384 1395 4259 
Q 1275 4134 1275 3809 
L 1275 3500 
L 2222 3500 
L 2222 3053 
L 1275 3053 
L 1275 0 
L 697 0 
L 697 3053 
L 147 3053 
L 147 3500 
L 697 3500 
L 697 3744 
Q 697 4328 969 4595 
Q 1241 4863 1831 4863 
L 2375 4863 
z
" transform="scale(0.015625)"/>
      <path id="DejaVuSans-6c" d="M 603 4863 
L 1178 4863 
L 1178 0 
L 603 0 
L 603 4863 
z
" transform="scale(0.015625)"/>
      <path id="DejaVuSans-29" d="M 513 4856 
L 1013 4856 
Q 1481 4119 1714 3412 
Q 1947 2706 1947 2009 
Q 1947 1309 1714 600 
Q 1481 -109 1013 -844 
L 513 -844 
Q 928 -128 1133 580 
Q 1338 1288 1338 2009 
Q 1338 2731 1133 3434 
Q 928 4138 513 4856 
z
" transform="scale(0.015625)"/>
      <path id="DejaVuSans-3d" d="M 678 2906 
L 4684 2906 
L 4684 2381 
L 678 2381 
L 678 2906 
z
M 678 1631 
L 4684 1631 
L 4684 1100 
L 678 1100 
L 678 1631 
z
" transform="scale(0.015625)"/>
     </defs>
     <use xlink:href="#DejaVuSans-28"/>
     <use xlink:href="#DejaVuSans-36" x="39.013672"/>
     <use xlink:href="#DejaVuSans-30" x="102.636719"/>
     <use xlink:href="#DejaVuSans-25" x="166.259766"/>
     <use xlink:href="#DejaVuSans-20" x="261.279297"/>
     <use xlink:href="#DejaVuSans-73" x="293.066406"/>
     <use xlink:href="#DejaVuSans-75" x="345.166016"/>
     <use xlink:href="#DejaVuSans-62" x="408.544922"/>
     <use xlink:href="#DejaVuSans-73" x="472.021484"/>
     <use xlink:href="#DejaVuSans-69" x="524.121094"/>
     <use xlink:href="#DejaVuSans-64" x="551.904297"/>
     <use xlink:href="#DejaVuSans-79" x="615.380859"/>
     <use xlink:href="#DejaVuSans-20" x="674.560547"/>
     <use xlink:href="#DejaVuSans-74" x="706.347656"/>
     <use xlink:href="#DejaVuSans-72" x="745.556641"/>
     <use xlink:href="#DejaVuSans-65" x="784.419922"/>
     <use xlink:href="#DejaVuSans-61" x="845.943359"/>
     <use xlink:href="#DejaVuSans-74" x="907.222656"/>
     <use xlink:href="#DejaVuSans-79" x="946.431641"/>
     <use xlink:href="#DejaVuSans-2c" x="1005.611328"/>
     <use xlink:href="#DejaVuSans-20" x="1037.398438"/>
     <use xlink:href="#DejaVuSans-50" x="1069.185547"/>
     <use xlink:href="#DejaVuSans-28" x="1129.488281"/>
     <use xlink:href="#DejaVuSans-63" x="1168.501953"/>
     <use xlink:href="#DejaVuSans-6f" x="1223.482422"/>
     <use xlink:href="#DejaVuSans-6e" x="1284.664062"/>
     <use xlink:href="#DejaVuSans-66" x="1348.042969"/>
     <use xlink:href="#DejaVuSans-6c" x="1383.248047"/>
     <use xlink:href="#DejaVuSans-69" x="1411.03125"/>
     <use xlink:href="#DejaVuSans-63" x="1438.814453"/>
     <use xlink:href="#DejaVuSans-74" x="1493.794922"/>
     <use xlink:href="#DejaVuSans-29" x="1533.003906"/>
     <use xlink:href="#DejaVuSans-3d" x="1572.017578"/>
     <use xlink:href="#DejaVuSans-35" x="1655.806641"/>
     <use xlink:href="#DejaVuSans-25" x="1719.429688"/>
     <use xlink:href="#DejaVuSans-29" x="1814.449219"/>
    </g>
   </g>
   <g id="legend_1">
    <g id="patch_7">
     <path d="M 353.735625 108.1845 
L 407.72 108.1845 
Q 409.72 108.1845 409.72 106.1845 
L 409.72 48.472 
Q 409.72 46.472 407.72 46.472 
L 353.735625 46.472 
Q 351.735625 46.472 351.735625 48.472 
L 351.735625 106.1845 
Q 351.735625 108.1845 353.735625 108.1845 
z
" style="fill: #ffffff; opacity: 0.8; stroke: #cccccc; stroke-linejoin: miter"/>
    </g>
    <g id="line2d_22">
     <path d="M 355.735625 54.570438 
L 365.735625 54.570438 
L 375.735625 54.570438 
" style="fill: none; stroke: #1f77b4; stroke-width: 1.5; stroke-linecap: square"/>
    </g>
    <g id="text_21">
     <!-- USA -->
     <g transform="translate(383.735625 58.070438) scale(0.1 -0.1)">
      <defs>
       <path id="DejaVuSans-55" d="M 556 4666 
L 1191 4666 
L 1191 1831 
Q 1191 1081 1462 751 
Q 1734 422 2344 422 
Q 2950 422 3222 751 
Q 3494 1081 3494 1831 
L 3494 4666 
L 4128 4666 
L 4128 1753 
Q 4128 841 3676 375 
Q 3225 -91 2344 -91 
Q 1459 -91 1007 375 
Q 556 841 556 1753 
L 556 4666 
z
" transform="scale(0.015625)"/>
       <path id="DejaVuSans-53" d="M 3425 4513 
L 3425 3897 
Q 3066 4069 2747 4153 
Q 2428 4238 2131 4238 
Q 1616 4238 1336 4038 
Q 1056 3838 1056 3469 
Q 1056 3159 1242 3001 
Q 1428 2844 1947 2747 
L 2328 2669 
Q 3034 2534 3370 2195 
Q 3706 1856 3706 1288 
Q 3706 609 3251 259 
Q 2797 -91 1919 -91 
Q 1588 -91 1214 -16 
Q 841 59 441 206 
L 441 856 
Q 825 641 1194 531 
Q 1563 422 1919 422 
Q 2459 422 2753 634 
Q 3047 847 3047 1241 
Q 3047 1584 2836 1778 
Q 2625 1972 2144 2069 
L 1759 2144 
Q 1053 2284 737 2584 
Q 422 2884 422 3419 
Q 422 4038 858 4394 
Q 1294 4750 2059 4750 
Q 2388 4750 2728 4690 
Q 3069 4631 3425 4513 
z
" transform="scale(0.015625)"/>
       <path id="DejaVuSans-41" d="M 2188 4044 
L 1331 1722 
L 3047 1722 
L 2188 4044 
z
M 1831 4666 
L 2547 4666 
L 4325 0 
L 3669 0 
L 3244 1197 
L 1141 1197 
L 716 0 
L 50 0 
L 1831 4666 
z
" transform="scale(0.015625)"/>
      </defs>
      <use xlink:href="#DejaVuSans-55"/>
      <use xlink:href="#DejaVuSans-53" x="73.193359"/>
      <use xlink:href="#DejaVuSans-41" x="138.544922"/>
     </g>
    </g>
    <g id="line2d_23">
     <path d="M 355.735625 69.248563 
L 365.735625 69.248563 
L 375.735625 69.248563 
" style="fill: none; stroke: #ff7f0e; stroke-width: 1.5; stroke-linecap: square"/>
    </g>
    <g id="text_22">
     <!-- CHN -->
     <g transform="translate(383.735625 72.748563) scale(0.1 -0.1)">
      <defs>
       <path id="DejaVuSans-43" d="M 4122 4306 
L 4122 3641 
Q 3803 3938 3442 4084 
Q 3081 4231 2675 4231 
Q 1875 4231 1450 3742 
Q 1025 3253 1025 2328 
Q 1025 1406 1450 917 
Q 1875 428 2675 428 
Q 3081 428 3442 575 
Q 3803 722 4122 1019 
L 4122 359 
Q 3791 134 3420 21 
Q 3050 -91 2638 -91 
Q 1578 -91 968 557 
Q 359 1206 359 2328 
Q 359 3453 968 4101 
Q 1578 4750 2638 4750 
Q 3056 4750 3426 4639 
Q 3797 4528 4122 4306 
z
" transform="scale(0.015625)"/>
       <path id="DejaVuSans-48" d="M 628 4666 
L 1259 4666 
L 1259 2753 
L 3553 2753 
L 3553 4666 
L 4184 4666 
L 4184 0 
L 3553 0 
L 3553 2222 
L 1259 2222 
L 1259 0 
L 628 0 
L 628 4666 
z
" transform="scale(0.015625)"/>
       <path id="DejaVuSans-4e" d="M 628 4666 
L 1478 4666 
L 3547 763 
L 3547 4666 
L 4159 4666 
L 4159 0 
L 3309 0 
L 1241 3903 
L 1241 0 
L 628 0 
L 628 4666 
z
" transform="scale(0.015625)"/>
      </defs>
      <use xlink:href="#DejaVuSans-43"/>
      <use xlink:href="#DejaVuSans-48" x="69.824219"/>
      <use xlink:href="#DejaVuSans-4e" x="145.019531"/>
     </g>
    </g>
    <g id="line2d_24">
     <path d="M 355.735625 83.926688 
L 365.735625 83.926688 
L 375.735625 83.926688 
" style="fill: none; stroke: #2ca02c; stroke-width: 1.5; stroke-linecap: square"/>
    </g>
    <g id="text_23">
     <!-- EU -->
     <g transform="translate(383.735625 87.426688) scale(0.1 -0.1)">
      <defs>
       <path id="DejaVuSans-45" d="M 628 4666 
L 3578 4666 
L 3578 4134 
L 1259 4134 
L 1259 2753 
L 3481 2753 
L 3481 2222 
L 1259 2222 
L 1259 531 
L 3634 531 
L 3634 0 
L 628 0 
L 628 4666 
z
" transform="scale(0.015625)"/>
      </defs>
      <use xlink:href="#DejaVuSans-45"/>
      <use xlink:href="#DejaVuSans-55" x="63.183594"/>
     </g>
    </g>
    <g id="line2d_25">
     <path d="M 355.735625 98.604813 
L 365.735625 98.604813 
L 375.735625 98.604813 
" style="fill: none; stroke: #d62728; stroke-width: 1.5; stroke-linecap: square"/>
    </g>
    <g id="text_24">
     <!-- IND -->
     <g transform="translate(383.735625 102.104813) scale(0.1 -0.1)">
      <defs>
       <path id="DejaVuSans-49" d="M 628 4666 
L 1259 4666 
L 1259 0 
L 628 0 
L 628 4666 
z
" transform="scale(0.015625)"/>
      </defs>
      <use xlink:href="#DejaVuSans-49"/>
      <use xlink:href="#DejaVuSans-4e" x="29.492188"/>
      <use xlink:href="#DejaVuSans-44" x="104.296875"/>
     </g>
    </g>
   </g>
  </g>
  <g id="text_25">
   <!-- Outstanding Debt, %GDP -->
   <g transform="translate(154.695938 16.030125) scale(0.12 -0.12)">
    <defs>
     <path id="DejaVuSans-4f" d="M 2522 4238 
Q 1834 4238 1429 3725 
Q 1025 3213 1025 2328 
Q 1025 1447 1429 934 
Q 1834 422 2522 422 
Q 3209 422 3611 934 
Q 4013 1447 4013 2328 
Q 4013 3213 3611 3725 
Q 3209 4238 2522 4238 
z
M 2522 4750 
Q 3503 4750 4090 4092 
Q 4678 3434 4678 2328 
Q 4678 1225 4090 567 
Q 3503 -91 2522 -91 
Q 1538 -91 948 565 
Q 359 1222 359 2328 
Q 359 3434 948 4092 
Q 1538 4750 2522 4750 
z
" transform="scale(0.015625)"/>
     <path id="DejaVuSans-67" d="M 2906 1791 
Q 2906 2416 2648 2759 
Q 2391 3103 1925 3103 
Q 1463 3103 1205 2759 
Q 947 2416 947 1791 
Q 947 1169 1205 825 
Q 1463 481 1925 481 
Q 2391 481 2648 825 
Q 2906 1169 2906 1791 
z
M 3481 434 
Q 3481 -459 3084 -895 
Q 2688 -1331 1869 -1331 
Q 1566 -1331 1297 -1286 
Q 1028 -1241 775 -1147 
L 775 -588 
Q 1028 -725 1275 -790 
Q 1522 -856 1778 -856 
Q 2344 -856 2625 -561 
Q 2906 -266 2906 331 
L 2906 616 
Q 2728 306 2450 153 
Q 2172 0 1784 0 
Q 1141 0 747 490 
Q 353 981 353 1791 
Q 353 2603 747 3093 
Q 1141 3584 1784 3584 
Q 2172 3584 2450 3431 
Q 2728 3278 2906 2969 
L 2906 3500 
L 3481 3500 
L 3481 434 
z
" transform="scale(0.015625)"/>
    </defs>
    <use xlink:href="#DejaVuSans-4f"/>
    <use xlink:href="#DejaVuSans-75" x="78.710938"/>
    <use xlink:href="#DejaVuSans-74" x="142.089844"/>
    <use xlink:href="#DejaVuSans-73" x="181.298828"/>
    <use xlink:href="#DejaVuSans-74" x="233.398438"/>
    <use xlink:href="#DejaVuSans-61" x="272.607422"/>
    <use xlink:href="#DejaVuSans-6e" x="333.886719"/>
    <use xlink:href="#DejaVuSans-64" x="397.265625"/>
    <use xlink:href="#DejaVuSans-69" x="460.742188"/>
    <use xlink:href="#DejaVuSans-6e" x="488.525391"/>
    <use xlink:href="#DejaVuSans-67" x="551.904297"/>
    <use xlink:href="#DejaVuSans-20" x="615.380859"/>
    <use xlink:href="#DejaVuSans-44" x="647.167969"/>
    <use xlink:href="#DejaVuSans-65" x="724.169922"/>
    <use xlink:href="#DejaVuSans-62" x="785.693359"/>
    <use xlink:href="#DejaVuSans-74" x="849.169922"/>
    <use xlink:href="#DejaVuSans-2c" x="888.378906"/>
    <use xlink:href="#DejaVuSans-20" x="920.166016"/>
    <use xlink:href="#DejaVuSans-25" x="951.953125"/>
    <use xlink:href="#DejaVuSans-47" x="1046.972656"/>
    <use xlink:href="#DejaVuSans-44" x="1124.462891"/>
    <use xlink:href="#DejaVuSans-50" x="1201.464844"/>
   </g>
  </g>
 </g>
 <defs>
  <clipPath id="p6f03587b2a">
   <rect x="57.6" y="41.472" width="357.12" height="266.112"/>
  </clipPath>
 </defs>
</svg>
