<?xml version="1.0" encoding="utf-8" standalone="no"?>
<!DOCTYPE svg PUBLIC "-//W3C//DTD SVG 1.1//EN"
  "http://www.w3.org/Graphics/SVG/1.1/DTD/svg11.dtd">
<svg xmlns:xlink="http://www.w3.org/1999/xlink" width="576pt" height="576pt" viewBox="0 0 576 576" xmlns="http://www.w3.org/2000/svg" version="1.1">
 <metadata>
  <rdf:RDF xmlns:dc="http://purl.org/dc/elements/1.1/" xmlns:cc="http://creativecommons.org/ns#" xmlns:rdf="http://www.w3.org/1999/02/22-rdf-syntax-ns#">
   <cc:Work>
    <dc:type rdf:resource="http://purl.org/dc/dcmitype/StillImage"/>
    <dc:date>2025-01-07T09:41:03.696607</dc:date>
    <dc:format>image/svg+xml</dc:format>
    <dc:creator>
     <cc:Agent>
      <dc:title>Matplotlib v3.9.2, https://matplotlib.org/</dc:title>
     </cc:Agent>
    </dc:creator>
   </cc:Work>
  </rdf:RDF>
 </metadata>
 <defs>
  <style type="text/css">*{stroke-linejoin: round; stroke-linecap: butt}</style>
 </defs>
 <g id="figure_1">
  <g id="patch_1">
   <path d="M 0 576 
L 576 576 
L 576 0 
L 0 0 
z
" style="fill: #ffffff"/>
  </g>
  <g id="axes_1">
   <g id="patch_2">
    <path d="M 472.608 290.88 
C 472.608 290.88 472.608 290.88 472.608 290.88 
L 295.2 290.88 
z
" style="fill: #1f77b4"/>
   </g>
   <g id="patch_3">
    <path d="M 472.608 290.88 
C 472.608 290.88 472.608 290.88 472.608 290.88 
L 295.2 290.88 
z
" style="fill: #ff7f0e"/>
   </g>
   <g id="patch_4">
    <path d="M 472.608 290.88 
C 472.608 290.88 472.608 290.88 472.608 290.88 
L 295.2 290.88 
z
" style="fill: #2ca02c"/>
   </g>
   <g id="patch_5">
    <path d="M 472.608 290.88 
C 472.608 290.88 472.608 290.88 472.608 290.88 
L 295.2 290.88 
z
" style="fill: #d62728"/>
   </g>
   <g id="patch_6">
    <path d="M 472.608 290.88 
C 472.608 290.88 472.608 290.88 472.608 290.88 
L 295.2 290.88 
z
" style="fill: #9467bd"/>
   </g>
   <g id="patch_7">
    <path d="M 472.608 290.88 
C 472.608 290.88 472.608 290.88 472.608 290.88 
L 295.2 290.88 
z
" style="fill: #8c564b"/>
   </g>
   <g id="patch_8">
    <path d="M 472.608 290.88 
C 472.608 290.88 472.608 290.88 472.608 290.88 
L 295.2 290.88 
z
" style="fill: #e377c2"/>
   </g>
   <g id="patch_9">
    <path d="M 472.608 290.88 
C 472.608 290.88 472.608 290.88 472.608 290.88 
L 295.2 290.88 
z
" style="fill: #7f7f7f"/>
   </g>
   <g id="patch_10">
    <path d="M 472.608 290.88 
C 472.608 290.88 472.608 290.88 472.608 290.88 
L 295.2 290.88 
z
" style="fill: #bcbd22"/>
   </g>
   <g id="patch_11">
    <path d="M 472.608 290.88 
C 472.608 290.88 472.608 290.88 472.608 290.88 
L 295.2 290.88 
z
" style="fill: #17becf"/>
   </g>
   <g id="patch_12">
    <path d="M 472.608 290.88 
C 472.608 290.88 472.608 290.88 472.608 290.88 
L 295.2 290.88 
z
" style="fill: #1f77b4"/>
   </g>
   <g id="patch_13">
    <path d="M 472.608 290.88 
C 472.608 290.87988 472.608 290.879761 472.608 290.879641 
C 472.608 290.879521 472.608 290.879401 472.608 290.879282 
L 295.2 290.88 
z
" style="fill: #ff7f0e"/>
   </g>
   <g id="patch_14">
    <path d="M 472.608 290.879282 
C 472.608 290.87891 472.608 290.878538 472.608 290.878166 
C 472.608 290.877794 472.608 290.877422 472.608 290.87705 
L 295.2 290.88 
z
" style="fill: #2ca02c"/>
   </g>
   <g id="patch_15">
    <path d="M 472.608 290.87705 
C 472.608 290.876633 472.608 290.876215 472.608 290.875798 
C 472.608 290.875381 472.608 290.874964 472.608 290.874547 
L 295.2 290.88 
z
" style="fill: #d62728"/>
   </g>
   <g id="patch_16">
    <path d="M 472.608 290.874547 
C 472.608 290.873911 472.608 290.873275 472.608 290.872638 
C 472.608 290.872002 472.608 290.871366 472.608 290.87073 
L 295.2 290.88 
z
" style="fill: #9467bd"/>
   </g>
   <g id="patch_17">
    <path d="M 472.608 290.87073 
C 472.608 290.869924 472.608 290.869118 472.608 290.868312 
C 472.608 290.867506 472.608 290.8667 472.608 290.865894 
L 295.2 290.88 
z
" style="fill: #8c564b"/>
   </g>
   <g id="patch_18">
    <path d="M 472.608 290.865894 
C 472.608 290.864833 472.608 290.863772 472.608 290.862712 
C 472.608 290.861651 472.608 290.86059 472.608 290.85953 
L 295.2 290.88 
z
" style="fill: #e377c2"/>
   </g>
   <g id="patch_19">
    <path d="M 472.608 290.85953 
C 472.608 290.858416 472.608 290.857302 472.608 290.856189 
C 472.608 290.855075 472.608 290.853962 472.608 290.852848 
L 295.2 290.88 
z
" style="fill: #7f7f7f"/>
   </g>
   <g id="patch_20">
    <path d="M 472.608 290.852848 
C 472.608 290.851667 472.608 290.850486 472.608 290.849304 
C 472.608 290.848123 472.608 290.846941 472.608 290.84576 
L 295.2 290.88 
z
" style="fill: #bcbd22"/>
   </g>
   <g id="patch_21">
    <path d="M 472.608 290.84576 
C 472.608 290.844446 472.608 290.843132 472.608 290.841819 
C 472.608 290.840505 472.608 290.839191 472.608 290.837877 
L 295.2 290.88 
z
" style="fill: #17becf"/>
   </g>
   <g id="patch_22">
    <path d="M 472.608 290.837877 
C 472.608 290.836383 472.607989 290.83489 472.607989 290.833396 
C 472.607989 290.831902 472.607989 290.830408 472.607989 290.828915 
L 295.2 290.88 
z
" style="fill: #1f77b4"/>
   </g>
   <g id="patch_23">
    <path d="M 472.607989 290.828915 
C 472.607989 290.827363 472.607989 290.825812 472.607989 290.824261 
C 472.607989 290.82271 472.607989 290.821159 472.607989 290.819608 
L 295.2 290.88 
z
" style="fill: #ff7f0e"/>
   </g>
   <g id="patch_24">
    <path d="M 472.607989 290.819608 
C 472.607989 290.818013 472.607989 290.816419 472.607989 290.814825 
C 472.607989 290.81323 472.607989 290.811636 472.607989 290.810042 
L 295.2 290.88 
z
" style="fill: #2ca02c"/>
   </g>
   <g id="patch_25">
    <path d="M 472.607989 290.810042 
C 472.607989 290.808085 472.607979 290.806128 472.607979 290.804171 
C 472.607979 290.802214 472.607979 290.800257 472.607979 290.7983 
L 295.2 290.88 
z
" style="fill: #d62728"/>
   </g>
   <g id="patch_26">
    <path d="M 472.607979 290.7983 
C 472.607979 290.79606 472.607979 290.79382 472.607979 290.79158 
C 472.607979 290.78934 472.607979 290.7871 472.607979 290.78486 
L 295.2 290.88 
z
" style="fill: #9467bd"/>
   </g>
   <g id="patch_27">
    <path d="M 472.607979 290.78486 
C 472.607979 290.782563 472.607968 290.780265 472.607968 290.777968 
C 472.607968 290.77567 472.607968 290.773373 472.607968 290.771075 
L 295.2 290.88 
z
" style="fill: #8c564b"/>
   </g>
   <g id="patch_28">
    <path d="M 472.607968 290.771075 
C 472.607968 290.768691 472.607958 290.766306 472.607958 290.763922 
C 472.607958 290.761537 472.607958 290.759153 472.607958 290.756768 
L 295.2 290.88 
z
" style="fill: #e377c2"/>
   </g>
   <g id="patch_29">
    <path d="M 472.607958 290.756768 
C 472.607958 290.754226 472.607947 290.751683 472.607947 290.749141 
C 472.607947 290.746598 472.607947 290.744056 472.607947 290.741513 
L 295.2 290.88 
z
" style="fill: #7f7f7f"/>
   </g>
   <g id="patch_30">
    <path d="M 472.607947 290.741513 
C 472.607947 290.73862 472.607937 290.735726 472.607937 290.732832 
C 472.607937 290.729938 472.607937 290.727044 472.607937 290.72415 
L 295.2 290.88 
z
" style="fill: #bcbd22"/>
   </g>
   <g id="patch_31">
    <path d="M 472.607937 290.72415 
C 472.607937 290.720684 472.607926 290.717217 472.607926 290.71375 
C 472.607926 290.710284 472.607915 290.706817 472.607915 290.70335 
L 295.2 290.88 
z
" style="fill: #17becf"/>
   </g>
   <g id="patch_32">
    <path d="M 472.607915 290.70335 
C 472.607915 290.699825 472.607905 290.6963 472.607905 290.692774 
C 472.607905 290.689249 472.607894 290.685724 472.607894 290.682198 
L 295.2 290.88 
z
" style="fill: #1f77b4"/>
   </g>
   <g id="patch_33">
    <path d="M 472.607894 290.682198 
C 472.607894 290.678457 472.607873 290.674716 472.607873 290.670975 
C 472.607873 290.667233 472.607863 290.663492 472.607863 290.659751 
L 295.2 290.88 
z
" style="fill: #ff7f0e"/>
   </g>
   <g id="patch_34">
    <path d="M 472.607863 290.659751 
C 472.607863 290.655987 472.607852 290.652224 472.607852 290.64846 
C 472.607852 290.644697 472.607831 290.640933 472.607831 290.63717 
L 295.2 290.88 
z
" style="fill: #2ca02c"/>
   </g>
   <g id="patch_35">
    <path d="M 472.607831 290.63717 
C 472.60782 290.63293 472.607831 290.62869 472.60782 290.62445 
C 472.60781 290.62021 472.60781 290.615971 472.607799 290.611731 
L 295.2 290.88 
z
" style="fill: #d62728"/>
   </g>
   <g id="patch_36">
    <path d="M 472.607799 290.611731 
C 472.607789 290.607397 472.607789 290.603063 472.607778 290.598729 
C 472.607767 290.594395 472.607767 290.59006 472.607757 290.585726 
L 295.2 290.88 
z
" style="fill: #9467bd"/>
   </g>
   <g id="patch_37">
    <path d="M 472.607757 290.585726 
C 472.607746 290.581262 472.607746 290.576798 472.607736 290.572333 
C 472.607725 290.567869 472.607725 290.563404 472.607714 290.55894 
L 295.2 290.88 
z
" style="fill: #8c564b"/>
   </g>
   <g id="patch_38">
    <path d="M 472.607714 290.55894 
C 472.607704 290.554186 472.607693 290.549432 472.607683 290.544678 
C 472.607672 290.539924 472.607662 290.535169 472.607651 290.530415 
L 295.2 290.88 
z
" style="fill: #e377c2"/>
   </g>
   <g id="patch_39">
    <path d="M 472.607651 290.530415 
C 472.60764 290.525289 472.60763 290.520163 472.607619 290.515037 
C 472.607609 290.509911 472.607598 290.504785 472.607588 290.499659 
L 295.2 290.88 
z
" style="fill: #7f7f7f"/>
   </g>
   <g id="patch_40">
    <path d="M 472.607588 290.499659 
C 472.607577 290.494444 472.607566 290.489229 472.607556 290.484014 
C 472.607545 290.478799 472.607535 290.473584 472.607524 290.468369 
L 295.2 290.88 
z
" style="fill: #bcbd22"/>
   </g>
   <g id="patch_41">
    <path d="M 472.607524 290.468369 
C 472.607514 290.462647 472.607492 290.456925 472.607482 290.451203 
C 472.607471 290.445482 472.60745 290.43976 472.60744 290.434038 
L 295.2 290.88 
z
" style="fill: #17becf"/>
   </g>
   <g id="patch_42">
    <path d="M 472.60744 290.434038 
C 472.607429 290.428205 472.607408 290.422373 472.607397 290.416541 
C 472.607387 290.410709 472.607355 290.404876 472.607344 290.399044 
L 295.2 290.88 
z
" style="fill: #1f77b4"/>
   </g>
   <g id="patch_43">
    <path d="M 472.607344 290.399044 
C 472.607323 290.392419 472.607313 290.385794 472.607292 290.379169 
C 472.60727 290.372543 472.60726 290.365918 472.607239 290.359293 
L 295.2 290.88 
z
" style="fill: #ff7f0e"/>
   </g>
   <g id="patch_44">
    <path d="M 472.607239 290.359293 
C 472.607217 290.352546 472.607196 290.345799 472.607175 290.339052 
C 472.607154 290.332305 472.607133 290.325558 472.607112 290.318811 
L 295.2 290.88 
z
" style="fill: #2ca02c"/>
   </g>
   <g id="patch_45">
    <path d="M 472.607112 290.318811 
C 472.607091 290.310757 472.607069 290.302703 472.607038 290.294649 
C 472.607006 290.286595 472.606985 290.278541 472.606953 290.270487 
L 295.2 290.88 
z
" style="fill: #d62728"/>
   </g>
   <g id="patch_46">
    <path d="M 472.606953 290.270487 
C 472.606921 290.262307 472.6069 290.254128 472.606869 290.245948 
C 472.606837 290.237769 472.606805 290.229589 472.606773 290.22141 
L 295.2 290.88 
z
" style="fill: #9467bd"/>
   </g>
   <g id="patch_47">
    <path d="M 472.606773 290.22141 
C 472.606742 290.212707 472.60671 290.204004 472.606678 290.195301 
C 472.606646 290.186598 472.606604 290.177895 472.606572 290.169192 
L 295.2 290.88 
z
" style="fill: #8c564b"/>
   </g>
   <g id="patch_48">
    <path d="M 472.606572 290.169192 
C 472.606541 290.160035 472.606509 290.150878 472.606467 290.14172 
C 472.606424 290.132563 472.606393 290.123406 472.60635 290.114249 
L 295.2 290.88 
z
" style="fill: #e377c2"/>
   </g>
   <g id="patch_49">
    <path d="M 472.60635 290.114249 
C 472.606308 290.104912 472.606266 290.095575 472.606224 290.086239 
C 472.606181 290.076902 472.606139 290.067565 472.606097 290.058228 
L 295.2 290.88 
z
" style="fill: #7f7f7f"/>
   </g>
   <g id="patch_50">
    <path d="M 472.606097 290.058228 
C 472.606044 290.047632 472.606001 290.037036 472.605949 290.026439 
C 472.605896 290.015843 472.605843 290.005246 472.60579 289.99465 
L 295.2 290.88 
z
" style="fill: #bcbd22"/>
   </g>
   <g id="patch_51">
    <path d="M 472.60579 289.99465 
C 472.605727 289.982782 472.605674 289.970913 472.60561 289.959045 
C 472.605547 289.947177 472.605483 289.935308 472.60542 289.92344 
L 295.2 290.88 
z
" style="fill: #17becf"/>
   </g>
   <g id="patch_52">
    <path d="M 472.60542 289.92344 
C 472.605356 289.911543 472.605293 289.899645 472.60523 289.887748 
C 472.605166 289.87585 472.605092 289.863953 472.605018 289.852056 
L 295.2 290.88 
z
" style="fill: #1f77b4"/>
   </g>
   <g id="patch_53">
    <path d="M 472.605018 289.852056 
C 472.604944 289.838656 472.60487 289.825257 472.604785 289.811857 
C 472.604701 289.798458 472.604627 289.785058 472.604542 289.771659 
L 295.2 290.88 
z
" style="fill: #ff7f0e"/>
   </g>
   <g id="patch_54">
    <path d="M 472.604542 289.771659 
C 472.604458 289.758044 472.604362 289.744429 472.604278 289.730815 
C 472.604193 289.7172 472.604109 289.703585 472.604013 289.689971 
L 295.2 290.88 
z
" style="fill: #2ca02c"/>
   </g>
   <g id="patch_55">
    <path d="M 472.604013 289.689971 
C 472.603918 289.676279 472.603823 289.662587 472.603728 289.648895 
C 472.603633 289.635203 472.603538 289.621511 472.603442 289.607819 
L 295.2 290.88 
z
" style="fill: #d62728"/>
   </g>
   <g id="patch_56">
    <path d="M 472.603442 289.607819 
C 472.603337 289.593096 472.60322 289.578373 472.603115 289.56365 
C 472.603009 289.548927 472.602903 289.534203 472.602787 289.51948 
L 295.2 290.88 
z
" style="fill: #9467bd"/>
   </g>
   <g id="patch_57">
    <path d="M 472.602787 289.51948 
C 472.60266 289.503019 472.602522 289.486559 472.602396 289.470098 
C 472.602269 289.453637 472.602131 289.437176 472.601994 289.420715 
L 295.2 290.88 
z
" style="fill: #8c564b"/>
   </g>
   <g id="patch_58">
    <path d="M 472.601994 289.420715 
C 472.601856 289.403651 472.601719 289.386586 472.601571 289.369522 
C 472.601423 289.352458 472.601275 289.335394 472.601127 289.31833 
L 295.2 290.88 
z
" style="fill: #e377c2"/>
   </g>
   <g id="patch_59">
    <path d="M 472.601127 289.31833 
C 472.600979 289.301154 472.60082 289.283978 472.600661 289.266802 
C 472.600503 289.249626 472.600344 289.23245 472.600186 289.215274 
L 295.2 290.88 
z
" style="fill: #7f7f7f"/>
   </g>
   <g id="patch_60">
    <path d="M 472.600186 289.215274 
C 472.600016 289.197729 472.599858 289.180183 472.599689 289.162637 
C 472.599519 289.145092 472.59935 289.127547 472.59917 289.110001 
L 295.2 290.88 
z
" style="fill: #bcbd22"/>
   </g>
   <g id="patch_61">
    <path d="M 472.59917 289.110001 
C 472.598991 289.092151 472.598811 289.0743 472.598631 289.05645 
C 472.598451 289.0386 472.598261 289.020749 472.598071 289.002899 
L 295.2 290.88 
z
" style="fill: #17becf"/>
   </g>
   <g id="patch_62">
    <path d="M 472.598071 289.002899 
C 472.59788 288.984965 472.597679 288.96703 472.597489 288.949096 
C 472.597299 288.931161 472.597098 288.913227 472.596897 288.895293 
L 295.2 290.88 
z
" style="fill: #1f77b4"/>
   </g>
   <g id="patch_63">
    <path d="M 472.596897 288.895293 
C 472.596696 288.877283 472.596495 288.859273 472.596284 288.841263 
C 472.596072 288.823253 472.595871 288.805243 472.59566 288.787233 
L 295.2 290.88 
z
" style="fill: #ff7f0e"/>
   </g>
   <g id="patch_64">
    <path d="M 472.59566 288.787233 
C 472.595438 288.768325 472.595216 288.749417 472.594983 288.730509 
C 472.59475 288.7116 472.594518 288.692692 472.594285 288.673784 
L 295.2 290.88 
z
" style="fill: #2ca02c"/>
   </g>
   <g id="patch_65">
    <path d="M 472.594285 288.673784 
C 472.594042 288.654453 472.593799 288.635122 472.593555 288.61579 
C 472.593312 288.596459 472.593058 288.577128 472.592805 288.557797 
L 295.2 290.88 
z
" style="fill: #d62728"/>
   </g>
   <g id="patch_66">
    <path d="M 472.592805 288.557797 
C 472.59254 288.537813 472.592265 288.51783 472.592001 288.497847 
C 472.591737 288.477863 472.591462 288.45788 472.591187 288.437897 
L 295.2 290.88 
z
" style="fill: #9467bd"/>
   </g>
   <g id="patch_67">
    <path d="M 472.591187 288.437897 
C 472.590901 288.416804 472.590605 288.395712 472.590309 288.37462 
C 472.590013 288.353528 472.589706 288.332435 472.5894 288.311343 
L 295.2 290.88 
z
" style="fill: #8c564b"/>
   </g>
   <g id="patch_68">
    <path d="M 472.5894 288.311343 
C 472.589093 288.290062 472.588786 288.26878 472.588469 288.247499 
C 472.588152 288.226217 472.587835 288.204936 472.587507 288.183655 
L 295.2 290.88 
z
" style="fill: #e377c2"/>
   </g>
   <g id="patch_69">
    <path d="M 472.587507 288.183655 
C 472.587169 288.161536 472.586841 288.139417 472.586492 288.117298 
C 472.586143 288.09518 472.585794 288.073061 472.585445 288.050943 
L 295.2 290.88 
z
" style="fill: #7f7f7f"/>
   </g>
   <g id="patch_70">
    <path d="M 472.585445 288.050943 
C 472.585085 288.028478 472.584726 288.006013 472.584356 287.983548 
C 472.583986 287.961084 472.583616 287.93862 472.583245 287.916155 
L 295.2 290.88 
z
" style="fill: #bcbd22"/>
   </g>
   <g id="patch_71">
    <path d="M 472.583245 287.916155 
C 472.582865 287.893326 472.582474 287.870498 472.582082 287.847669 
C 472.581691 287.824841 472.5813 287.802012 472.580898 287.779184 
L 295.2 290.88 
z
" style="fill: #17becf"/>
   </g>
   <g id="patch_72">
    <path d="M 472.580898 287.779184 
C 472.580486 287.755507 472.580063 287.731829 472.57964 287.708152 
C 472.579217 287.684475 472.578794 287.660798 472.57836 287.637121 
L 295.2 290.88 
z
" style="fill: #1f77b4"/>
   </g>
   <g id="patch_73">
    <path d="M 472.57836 287.637121 
C 472.577916 287.61262 472.577451 287.588119 472.576996 287.563618 
C 472.576541 287.539117 472.576076 287.514616 472.575611 287.490115 
L 295.2 290.88 
z
" style="fill: #ff7f0e"/>
   </g>
   <g id="patch_74">
    <path d="M 472.575611 287.490115 
C 472.575135 287.465377 472.574659 287.44064 472.574173 287.415902 
C 472.573686 287.391164 472.57321 287.366427 472.572713 287.341689 
L 295.2 290.88 
z
" style="fill: #2ca02c"/>
   </g>
   <g id="patch_75">
    <path d="M 472.572713 287.341689 
C 472.572195 287.315964 472.571688 287.290238 472.571159 287.264513 
C 472.57063 287.238788 472.570102 287.213063 472.569562 287.187338 
L 295.2 290.88 
z
" style="fill: #d62728"/>
   </g>
   <g id="patch_76">
    <path d="M 472.569562 287.187338 
C 472.569023 287.161267 472.568473 287.135197 472.567923 287.109126 
C 472.567373 287.083056 472.566813 287.056986 472.566242 287.030916 
L 295.2 290.88 
z
" style="fill: #9467bd"/>
   </g>
   <g id="patch_77">
    <path d="M 472.566242 287.030916 
C 472.565671 287.004783 472.5651 286.978649 472.564518 286.952516 
C 472.563937 286.926384 472.563355 286.900251 472.562763 286.874118 
L 295.2 290.88 
z
" style="fill: #8c564b"/>
   </g>
   <g id="patch_78">
    <path d="M 472.562763 286.874118 
C 472.56215 286.846939 472.561536 286.81976 472.560912 286.792582 
C 472.560289 286.765404 472.559644 286.738225 472.559009 286.711047 
L 295.2 290.88 
z
" style="fill: #e377c2"/>
   </g>
   <g id="patch_79">
    <path d="M 472.559009 286.711047 
C 472.558353 286.683246 472.557698 286.655446 472.557032 286.627645 
C 472.556365 286.599845 472.555689 286.572045 472.555012 286.544245 
L 295.2 290.88 
z
" style="fill: #7f7f7f"/>
   </g>
   <g id="patch_80">
    <path d="M 472.555012 286.544245 
C 472.554325 286.515961 472.553627 286.487677 472.552918 286.459393 
C 472.55221 286.431109 472.551501 286.402825 472.550782 286.374542 
L 295.2 290.88 
z
" style="fill: #bcbd22"/>
   </g>
   <g id="patch_81">
    <path d="M 472.550782 286.374542 
C 472.55001 286.344064 472.549228 286.313588 472.548435 286.283111 
C 472.547642 286.252634 472.546849 286.222157 472.546045 286.191681 
L 295.2 290.88 
z
" style="fill: #17becf"/>
   </g>
   <g id="patch_82">
    <path d="M 472.546045 286.191681 
C 472.545231 286.160817 472.544406 286.129954 472.543571 286.099091 
C 472.542735 286.068227 472.541889 286.037365 472.541043 286.006502 
L 295.2 290.88 
z
" style="fill: #1f77b4"/>
   </g>
   <g id="patch_83">
    <path d="M 472.541043 286.006502 
C 472.540144 285.973884 472.539246 285.941266 472.538336 285.908648 
C 472.537427 285.876031 472.536496 285.843413 472.535566 285.810796 
L 295.2 290.88 
z
" style="fill: #ff7f0e"/>
   </g>
   <g id="patch_84">
    <path d="M 472.535566 285.810796 
C 472.534625 285.77779 472.533662 285.744785 472.5327 285.711779 
C 472.531738 285.678774 472.530776 285.645769 472.529792 285.612764 
L 295.2 290.88 
z
" style="fill: #2ca02c"/>
   </g>
   <g id="patch_85">
    <path d="M 472.529792 285.612764 
C 472.528724 285.576848 472.527646 285.540932 472.526556 285.505017 
C 472.525467 285.469102 472.524368 285.433187 472.523257 285.397273 
L 295.2 290.88 
z
" style="fill: #d62728"/>
   </g>
   <g id="patch_86">
    <path d="M 472.523257 285.397273 
C 472.522126 285.360669 472.520984 285.324065 472.519831 285.287461 
C 472.518679 285.250857 472.517505 285.214254 472.516331 285.177651 
L 295.2 290.88 
z
" style="fill: #9467bd"/>
   </g>
   <g id="patch_87">
    <path d="M 472.516331 285.177651 
C 472.515052 285.13788 472.513751 285.098112 472.51245 285.058342 
C 472.51115 285.018573 472.509828 284.978804 472.508495 284.939036 
L 295.2 290.88 
z
" style="fill: #8c564b"/>
   </g>
   <g id="patch_88">
    <path d="M 472.508495 284.939036 
C 472.507131 284.898475 472.505767 284.857915 472.504382 284.817356 
C 472.502997 284.776796 472.50159 284.736237 472.500173 284.695679 
L 295.2 290.88 
z
" style="fill: #e377c2"/>
   </g>
   <g id="patch_89">
    <path d="M 472.500173 284.695679 
C 472.498756 284.654929 472.497318 284.61418 472.49587 284.573431 
C 472.494421 284.532682 472.492962 284.491933 472.491481 284.451185 
L 295.2 290.88 
z
" style="fill: #7f7f7f"/>
   </g>
   <g id="patch_90">
    <path d="M 472.491481 284.451185 
C 472.48998 284.409733 472.488457 284.368281 472.486924 284.326829 
C 472.485391 284.285378 472.483847 284.243927 472.482282 284.202477 
L 295.2 290.88 
z
" style="fill: #bcbd22"/>
   </g>
   <g id="patch_91">
    <path d="M 472.482282 284.202477 
C 472.480696 284.160258 472.479088 284.118039 472.47747 284.075821 
C 472.475852 284.033603 472.474213 283.991386 472.472564 283.949169 
L 295.2 290.88 
z
" style="fill: #17becf"/>
   </g>
   <g id="patch_92">
    <path d="M 472.472564 283.949169 
C 472.470872 283.905859 472.469159 283.862549 472.467435 283.819239 
C 472.465712 283.775929 472.463967 283.732621 472.462212 283.689312 
L 295.2 290.88 
z
" style="fill: #1f77b4"/>
   </g>
   <g id="patch_93">
    <path d="M 472.462212 283.689312 
C 472.460424 283.645314 472.458627 283.601316 472.456808 283.557319 
C 472.454989 283.513322 472.45316 283.469325 472.451309 283.42533 
L 295.2 290.88 
z
" style="fill: #ff7f0e"/>
   </g>
   <g id="patch_94">
    <path d="M 472.451309 283.42533 
C 472.449438 283.380945 472.447566 283.336561 472.445663 283.292178 
C 472.443759 283.247794 472.441845 283.203412 472.43991 283.15903 
L 295.2 290.88 
z
" style="fill: #2ca02c"/>
   </g>
   <g id="patch_95">
    <path d="M 472.43991 283.15903 
C 472.437975 283.114638 472.436019 283.070247 472.434052 283.025857 
C 472.432085 282.981466 472.430108 282.937076 472.428109 282.892687 
L 295.2 290.88 
z
" style="fill: #d62728"/>
   </g>
   <g id="patch_96">
    <path d="M 472.428109 282.892687 
C 472.426026 282.846353 472.423911 282.800021 472.421786 282.753689 
C 472.41966 282.707358 472.417514 282.661026 472.415357 282.614696 
L 295.2 290.88 
z
" style="fill: #9467bd"/>
   </g>
   <g id="patch_97">
    <path d="M 472.415357 282.614696 
C 472.413147 282.567316 472.410926 282.519938 472.408674 282.47256 
C 472.406421 282.425183 472.404158 282.377805 472.401874 282.330429 
L 295.2 290.88 
z
" style="fill: #8c564b"/>
   </g>
   <g id="patch_98">
    <path d="M 472.401874 282.330429 
C 472.399241 282.275748 472.396566 282.221068 472.39388 282.16639 
C 472.391194 282.111711 472.388477 282.057032 472.385738 282.002356 
L 295.2 290.88 
z
" style="fill: #e377c2"/>
   </g>
   <g id="patch_99">
    <path d="M 472.385738 282.002356 
C 472.382883 281.945369 472.379996 281.888383 472.377088 281.831398 
C 472.37418 281.774414 472.371241 281.717431 472.36828 281.660449 
L 295.2 290.88 
z
" style="fill: #7f7f7f"/>
   </g>
   <g id="patch_100">
    <path d="M 472.36828 281.660449 
C 472.365266 281.602595 472.362231 281.544743 472.359165 281.486892 
C 472.356098 281.429041 472.352989 281.371193 472.34987 281.313345 
L 295.2 290.88 
z
" style="fill: #bcbd22"/>
   </g>
   <g id="patch_101">
    <path d="M 472.34987 281.313345 
C 472.346655 281.253774 472.343409 281.194204 472.340131 281.134636 
C 472.336853 281.075068 472.333554 281.015502 472.330212 280.955938 
L 295.2 290.88 
z
" style="fill: #17becf"/>
   </g>
   <g id="patch_102">
    <path d="M 472.330212 280.955938 
C 472.326849 280.895867 472.323444 280.835799 472.320018 280.775732 
C 472.316592 280.715665 472.313145 280.6556 472.309656 280.595538 
L 295.2 290.88 
z
" style="fill: #1f77b4"/>
   </g>
   <g id="patch_103">
    <path d="M 472.309656 280.595538 
C 472.3055 280.523906 472.301291 280.452276 472.29704 280.38065 
C 472.292789 280.309023 472.288507 280.2374 472.284171 280.165778 
L 295.2 290.88 
z
" style="fill: #ff7f0e"/>
   </g>
   <g id="patch_104">
    <path d="M 472.284171 280.165778 
C 472.279466 280.088084 472.274718 280.010393 472.269917 279.932704 
C 472.265116 279.855016 472.260263 279.777331 472.255356 279.699649 
L 295.2 290.88 
z
" style="fill: #2ca02c"/>
   </g>
   <g id="patch_105">
    <path d="M 472.255356 279.699649 
C 472.250386 279.620949 472.245364 279.542254 472.240288 279.463561 
C 472.235212 279.384868 472.230084 279.306179 472.224902 279.227493 
L 295.2 290.88 
z
" style="fill: #d62728"/>
   </g>
   <g id="patch_106">
    <path d="M 472.224902 279.227493 
C 472.219277 279.141956 472.213577 279.056422 472.207825 278.970895 
C 472.202072 278.885367 472.196256 278.799843 472.190377 278.714323 
L 295.2 290.88 
z
" style="fill: #9467bd"/>
   </g>
   <g id="patch_107">
    <path d="M 472.190377 278.714323 
C 472.184434 278.627839 472.178428 278.541359 472.172358 278.454885 
C 472.166289 278.368411 472.160145 278.281939 472.153948 278.195474 
L 295.2 290.88 
z
" style="fill: #8c564b"/>
   </g>
   <g id="patch_108">
    <path d="M 472.153948 278.195474 
C 472.147699 278.108269 472.141386 278.021069 472.13501 277.933873 
C 472.128633 277.846677 472.122183 277.759486 472.115669 277.672299 
L 295.2 290.88 
z
" style="fill: #e377c2"/>
   </g>
   <g id="patch_109">
    <path d="M 472.115669 277.672299 
C 472.108986 277.582762 472.10224 277.493231 472.095419 277.403704 
C 472.088599 277.314178 472.081704 277.224657 472.074747 277.135141 
L 295.2 290.88 
z
" style="fill: #7f7f7f"/>
   </g>
   <g id="patch_110">
    <path d="M 472.074747 277.135141 
C 472.067545 277.042436 472.06027 276.949737 472.052921 276.857043 
C 472.045572 276.764348 472.038149 276.671659 472.030652 276.578976 
L 295.2 290.88 
z
" style="fill: #bcbd22"/>
   </g>
   <g id="patch_111">
    <path d="M 472.030652 276.578976 
C 472.023144 276.486116 472.015562 276.393263 472.007906 276.300415 
C 472.00025 276.207567 471.99252 276.114725 471.984717 276.021889 
L 295.2 290.88 
z
" style="fill: #17becf"/>
   </g>
   <g id="patch_112">
    <path d="M 471.984717 276.021889 
C 471.976701 275.926527 471.968612 275.83117 471.960438 275.735822 
C 471.952264 275.640473 471.944016 275.545129 471.935694 275.449794 
L 295.2 290.88 
z
" style="fill: #1f77b4"/>
   </g>
   <g id="patch_113">
    <path d="M 471.935694 275.449794 
C 471.925934 275.337966 471.916057 275.226145 471.906086 275.114336 
C 471.896114 275.002527 471.886026 274.890728 471.875843 274.778938 
L 295.2 290.88 
z
" style="fill: #ff7f0e"/>
   </g>
   <g id="patch_114">
    <path d="M 471.875843 274.778938 
C 471.864708 274.656759 471.853447 274.534592 471.842058 274.412438 
C 471.83067 274.290283 471.819165 274.168141 471.807522 274.04601 
L 295.2 290.88 
z
" style="fill: #2ca02c"/>
   </g>
   <g id="patch_115">
    <path d="M 471.807522 274.04601 
C 471.795298 273.917717 471.782926 273.789437 471.770417 273.661172 
C 471.757908 273.532906 471.74525 273.404654 471.732466 273.276416 
L 295.2 290.88 
z
" style="fill: #d62728"/>
   </g>
   <g id="patch_116">
    <path d="M 471.732466 273.276416 
C 471.71966 273.148035 471.706717 273.019666 471.693637 272.891313 
C 471.680556 272.762961 471.667338 272.634623 471.653972 272.506298 
L 295.2 290.88 
z
" style="fill: #9467bd"/>
   </g>
   <g id="patch_117">
    <path d="M 471.653972 272.506298 
C 471.640596 272.377842 471.627082 272.249399 471.61343 272.120973 
C 471.599779 271.992546 471.585979 271.864134 471.572042 271.735738 
L 295.2 290.88 
z
" style="fill: #8c564b"/>
   </g>
   <g id="patch_118">
    <path d="M 471.572042 271.735738 
C 471.557238 271.599319 471.542265 271.46292 471.527144 271.326536 
C 471.512022 271.190152 471.496732 271.053786 471.481293 270.917438 
L 295.2 290.88 
z
" style="fill: #e377c2"/>
   </g>
   <g id="patch_119">
    <path d="M 471.481293 270.917438 
C 471.464787 270.771652 471.44809 270.625888 471.431224 270.480144 
C 471.414358 270.334401 471.397301 270.188678 471.380065 270.042977 
L 295.2 290.88 
z
" style="fill: #7f7f7f"/>
   </g>
   <g id="patch_120">
    <path d="M 471.380065 270.042977 
C 471.361127 269.88287 471.341976 269.722788 471.322604 269.562732 
C 471.303232 269.402676 471.283638 269.242648 471.263832 269.082646 
L 295.2 290.88 
z
" style="fill: #bcbd22"/>
   </g>
   <g id="patch_121">
    <path d="M 471.263832 269.082646 
C 471.240167 268.891528 471.216195 268.700447 471.191916 268.509406 
C 471.167637 268.318364 471.143041 268.127365 471.118139 267.936406 
L 295.2 290.88 
z
" style="fill: #17becf"/>
   </g>
   <g id="patch_122">
    <path d="M 471.118139 267.936406 
C 471.089704 267.718358 471.060858 267.500365 471.031609 267.282425 
C 471.00236 267.064485 470.97271 266.846599 470.942647 266.62877 
L 295.2 290.88 
z
" style="fill: #1f77b4"/>
   </g>
   <g id="patch_123">
    <path d="M 470.942647 266.62877 
C 470.912542 266.410571 470.882014 266.19243 470.851094 265.974345 
C 470.820175 265.75626 470.788843 265.538233 470.75711 265.320264 
L 295.2 290.88 
z
" style="fill: #ff7f0e"/>
   </g>
   <g id="patch_124">
    <path d="M 470.75711 265.320264 
C 470.723991 265.092767 470.690428 264.865337 470.656421 264.637973 
C 470.622414 264.410609 470.587963 264.183311 470.553078 263.956079 
L 295.2 290.88 
z
" style="fill: #2ca02c"/>
   </g>
   <g id="patch_125">
    <path d="M 470.553078 263.956079 
C 470.509321 263.671119 470.464877 263.386267 470.419735 263.101524 
C 470.374593 262.816781 470.328754 262.532151 470.282227 262.247633 
L 295.2 290.88 
z
" style="fill: #d62728"/>
   </g>
   <g id="patch_126">
    <path d="M 470.282227 262.247633 
C 470.235583 261.962414 470.188242 261.677311 470.140203 261.392324 
C 470.092163 261.107338 470.043426 260.822468 469.994002 260.537719 
L 295.2 290.88 
z
" style="fill: #9467bd"/>
   </g>
   <g id="patch_127">
    <path d="M 469.994002 260.537719 
C 469.942473 260.240887 469.890193 259.944187 469.837153 259.647619 
C 469.784112 259.351051 469.730331 259.054618 469.675778 258.758325 
L 295.2 290.88 
z
" style="fill: #8c564b"/>
   </g>
   <g id="patch_128">
    <path d="M 469.675778 258.758325 
C 469.604771 258.372644 469.532495 257.987202 469.45893 257.602002 
C 469.385364 257.216803 469.310529 256.831847 469.234415 256.447141 
L 295.2 290.88 
z
" style="fill: #e377c2"/>
   </g>
   <g id="patch_129">
    <path d="M 469.234415 256.447141 
C 469.153775 256.039564 469.071708 255.632275 468.988202 255.225274 
C 468.904697 254.818273 468.819774 254.411568 468.733413 254.005164 
L 295.2 290.88 
z
" style="fill: #7f7f7f"/>
   </g>
   <g id="patch_130">
    <path d="M 468.733413 254.005164 
C 468.645446 253.591163 468.555976 253.177479 468.465047 252.764117 
C 468.374119 252.350755 468.281709 251.937722 468.18782 251.525024 
L 295.2 290.88 
z
" style="fill: #bcbd22"/>
   </g>
   <g id="patch_131">
    <path d="M 468.18782 251.525024 
C 468.093021 251.108305 467.996699 250.69193 467.898887 250.275906 
C 467.801074 249.859882 467.70176 249.444218 467.600944 249.028914 
L 295.2 290.88 
z
" style="fill: #17becf"/>
   </g>
   <g id="patch_132">
    <path d="M 467.600944 249.028914 
C 467.500054 248.613323 467.397673 248.198096 467.29378 247.783246 
C 467.189888 247.368396 467.084493 246.953921 466.977608 246.539833 
L 295.2 290.88 
z
" style="fill: #1f77b4"/>
   </g>
   <g id="patch_133">
    <path d="M 466.977608 246.539833 
C 466.87049 246.124853 466.761881 245.710265 466.651759 245.296073 
C 466.541638 244.881882 466.430015 244.468092 466.316891 244.054709 
L 295.2 290.88 
z
" style="fill: #ff7f0e"/>
   </g>
   <g id="patch_134">
    <path d="M 466.316891 244.054709 
C 466.195836 243.612311 466.073057 243.170388 465.948566 242.728946 
C 465.824074 242.287504 465.69789 241.846538 465.569983 241.406075 
L 295.2 290.88 
z
" style="fill: #2ca02c"/>
   </g>
   <g id="patch_135">
    <path d="M 465.569983 241.406075 
C 465.436281 240.945642 465.300697 240.485753 465.163262 240.026419 
C 465.025828 239.567086 464.886542 239.108308 464.745385 238.650106 
L 295.2 290.88 
z
" style="fill: #d62728"/>
   </g>
   <g id="patch_136">
    <path d="M 464.745385 238.650106 
C 464.565643 238.06664 464.382897 237.48411 464.197138 236.902532 
C 464.011378 236.320954 463.822626 235.740332 463.630871 235.1607 
L 295.2 290.88 
z
" style="fill: #9467bd"/>
   </g>
   <g id="patch_137">
    <path d="M 463.630871 235.1607 
C 463.4368 234.574067 463.239673 233.98846 463.03949 233.403884 
C 462.839308 232.819308 462.636069 232.235784 462.429785 231.653334 
L 295.2 290.88 
z
" style="fill: #8c564b"/>
   </g>
   <g id="patch_138">
    <path d="M 462.429785 231.653334 
C 462.189493 230.974847 461.945067 230.297825 461.696528 229.622315 
C 461.447989 228.946805 461.195347 228.272807 460.938612 227.600369 
L 295.2 290.88 
z
" style="fill: #e377c2"/>
   </g>
   <g id="patch_139">
    <path d="M 460.938612 227.600369 
C 460.652756 226.851663 460.361814 226.104903 460.065838 225.360142 
C 459.769862 224.61538 459.468842 223.872633 459.1628 223.131948 
L 295.2 290.88 
z
" style="fill: #7f7f7f"/>
   </g>
   <g id="patch_140">
    <path d="M 459.1628 223.131948 
C 458.810928 222.280354 458.452426 221.43151 458.087326 220.585499 
C 457.722225 219.739488 457.350548 218.896338 456.972314 218.056117 
L 295.2 290.88 
z
" style="fill: #bcbd22"/>
   </g>
   <g id="patch_141">
    <path d="M 456.972314 218.056117 
C 456.504167 217.016173 456.026006 215.98077 455.537894 214.950047 
C 455.049783 213.919324 454.551742 212.893322 454.043846 211.872205 
L 295.2 290.88 
z
" style="fill: #17becf"/>
   </g>
   <g id="patch_142">
    <path d="M 454.043846 211.872205 
C 453.375696 210.528904 452.690531 209.194137 451.988522 207.868215 
C 451.286512 206.542293 450.567711 205.225333 449.832297 203.917647 
L 295.2 290.88 
z
" style="fill: #1f77b4"/>
   </g>
   <g id="patch_143">
    <path d="M 449.832297 203.917647 
C 448.947944 202.345137 448.039672 200.786225 447.107766 199.24142 
C 446.17586 197.696614 445.220447 196.166116 444.241855 194.650464 
L 295.2 290.88 
z
" style="fill: #ff7f0e"/>
   </g>
   <g id="patch_144">
    <path d="M 444.241855 194.650464 
C 443.245223 193.106864 442.224673 191.57884 441.180573 190.066952 
C 440.136473 188.555065 439.06894 187.059472 437.978377 185.580746 
L 295.2 290.88 
z
" style="fill: #2ca02c"/>
   </g>
   <g id="patch_145">
    <path d="M 437.978377 185.580746 
C 436.350108 183.372919 434.67085 181.20317 432.941945 179.073222 
C 431.21304 176.943275 429.434965 174.853722 427.609157 172.806244 
L 295.2 290.88 
z
" style="fill: #d62728"/>
   </g>
   <g id="patch_146">
    <path d="M 427.609157 172.806244 
C 425.515057 170.457895 423.358854 168.165674 421.142831 165.932003 
C 418.926809 163.698332 416.65175 161.524004 414.320076 159.411346 
L 295.2 290.88 
z
" style="fill: #9467bd"/>
   </g>
   <g id="patch_147">
    <path d="M 414.320076 159.411346 
C 411.22613 156.608004 408.034191 153.914772 404.750213 151.336642 
C 401.466235 148.758512 398.09227 146.297123 394.63463 143.957053 
L 295.2 290.88 
z
" style="fill: #8c564b"/>
   </g>
   <g id="patch_148">
    <path d="M 394.63463 143.957053 
C 390.128639 140.907487 385.484737 138.066817 380.71766 135.444074 
C 375.950584 132.821331 371.065386 130.419274 366.077538 128.245528 
L 295.2 290.88 
z
" style="fill: #e377c2"/>
   </g>
   <g id="patch_149">
    <path d="M 366.077538 128.245528 
C 353.237925 122.649915 339.780734 118.594412 325.987296 116.163825 
C 312.193859 113.733239 298.160983 112.944615 284.182068 113.814461 
L 295.2 290.88 
z
" style="fill: #7f7f7f"/>
   </g>
   <g id="patch_150">
    <path d="M 284.182068 113.814461 
C 258.364701 115.420946 233.208371 122.654694 210.481067 135.00729 
C 187.753763 147.359886 168.000683 164.535027 152.610132 185.325608 
L 295.2 290.88 
z
" style="fill: #bcbd22"/>
   </g>
   <g id="patch_151">
    <path d="M 152.610132 185.325608 
C 132.221407 212.868054 120.242931 245.736791 118.12967 279.939431 
C 116.016399 314.142075 123.857526 348.235383 140.700611 378.078256 
L 295.2 290.88 
z
" style="fill: #17becf"/>
   </g>
   <g id="patch_152">
    <path d="M 140.700611 378.078256 
C 159.133136 410.737319 187.454922 436.725708 221.574608 452.289107 
C 255.694292 467.852506 293.885765 472.203594 330.631856 464.713778 
L 295.2 290.88 
z
" style="fill: #1f77b4"/>
   </g>
   <g id="patch_153">
    <path d="M 330.631856 464.713778 
C 370.699493 456.54695 406.737005 434.773039 432.603577 403.102349 
C 458.470149 371.431659 472.608 331.771439 472.608 290.879969 
L 295.2 290.88 
z
" style="fill: #ff7f0e"/>
   </g>
   <g id="matplotlib.axis_1"/>
   <g id="matplotlib.axis_2"/>
   <g id="text_1">
    <!-- BIH -->
    <g transform="translate(490.3488 293.63898) scale(0.1 -0.1)">
     <defs>
      <path id="DejaVuSans-42" d="M 1259 2228 
L 1259 519 
L 2272 519 
Q 2781 519 3026 730 
Q 3272 941 3272 1375 
Q 3272 1813 3026 2020 
Q 2781 2228 2272 2228 
L 1259 2228 
z
M 1259 4147 
L 1259 2741 
L 2194 2741 
Q 2656 2741 2882 2914 
Q 3109 3088 3109 3444 
Q 3109 3797 2882 3972 
Q 2656 4147 2194 4147 
L 1259 4147 
z
M 628 4666 
L 2241 4666 
Q 2963 4666 3353 4366 
Q 3744 4066 3744 3513 
Q 3744 3084 3544 2831 
Q 3344 2578 2956 2516 
Q 3422 2416 3680 2098 
Q 3938 1781 3938 1306 
Q 3938 681 3513 340 
Q 3088 0 2303 0 
L 628 0 
L 628 4666 
z
" transform="scale(0.015625)"/>
      <path id="DejaVuSans-49" d="M 628 4666 
L 1259 4666 
L 1259 0 
L 628 0 
L 628 4666 
z
" transform="scale(0.015625)"/>
      <path id="DejaVuSans-48" d="M 628 4666 
L 1259 4666 
L 1259 2753 
L 3553 2753 
L 3553 4666 
L 4184 4666 
L 4184 0 
L 3553 0 
L 3553 2222 
L 1259 2222 
L 1259 0 
L 628 0 
L 628 4666 
z
" transform="scale(0.015625)"/>
     </defs>
     <use xlink:href="#DejaVuSans-42"/>
     <use xlink:href="#DejaVuSans-49" x="68.603516"/>
     <use xlink:href="#DejaVuSans-48" x="98.095703"/>
    </g>
   </g>
   <g id="text_2">
    <!-- MNE -->
    <g transform="translate(490.3488 293.637357) scale(0.1 -0.1)">
     <defs>
      <path id="DejaVuSans-4d" d="M 628 4666 
L 1569 4666 
L 2759 1491 
L 3956 4666 
L 4897 4666 
L 4897 0 
L 4281 0 
L 4281 4097 
L 3078 897 
L 2444 897 
L 1241 4097 
L 1241 0 
L 628 0 
L 628 4666 
z
" transform="scale(0.015625)"/>
      <path id="DejaVuSans-4e" d="M 628 4666 
L 1478 4666 
L 3547 763 
L 3547 4666 
L 4159 4666 
L 4159 0 
L 3309 0 
L 1241 3903 
L 1241 0 
L 628 0 
L 628 4666 
z
" transform="scale(0.015625)"/>
      <path id="DejaVuSans-45" d="M 628 4666 
L 3578 4666 
L 3578 4134 
L 1259 4134 
L 1259 2753 
L 3481 2753 
L 3481 2222 
L 1259 2222 
L 1259 531 
L 3634 531 
L 3634 0 
L 628 0 
L 628 4666 
z
" transform="scale(0.015625)"/>
     </defs>
     <use xlink:href="#DejaVuSans-4d"/>
     <use xlink:href="#DejaVuSans-4e" x="86.279297"/>
     <use xlink:href="#DejaVuSans-45" x="161.083984"/>
    </g>
   </g>
   <g id="text_3">
    <!-- LSO -->
    <g transform="translate(490.3488 293.634753) scale(0.1 -0.1)">
     <defs>
      <path id="DejaVuSans-4c" d="M 628 4666 
L 1259 4666 
L 1259 531 
L 3531 531 
L 3531 0 
L 628 0 
L 628 4666 
z
" transform="scale(0.015625)"/>
      <path id="DejaVuSans-53" d="M 3425 4513 
L 3425 3897 
Q 3066 4069 2747 4153 
Q 2428 4238 2131 4238 
Q 1616 4238 1336 4038 
Q 1056 3838 1056 3469 
Q 1056 3159 1242 3001 
Q 1428 2844 1947 2747 
L 2328 2669 
Q 3034 2534 3370 2195 
Q 3706 1856 3706 1288 
Q 3706 609 3251 259 
Q 2797 -91 1919 -91 
Q 1588 -91 1214 -16 
Q 841 59 441 206 
L 441 856 
Q 825 641 1194 531 
Q 1563 422 1919 422 
Q 2459 422 2753 634 
Q 3047 847 3047 1241 
Q 3047 1584 2836 1778 
Q 2625 1972 2144 2069 
L 1759 2144 
Q 1053 2284 737 2584 
Q 422 2884 422 3419 
Q 422 4038 858 4394 
Q 1294 4750 2059 4750 
Q 2388 4750 2728 4690 
Q 3069 4631 3425 4513 
z
" transform="scale(0.015625)"/>
      <path id="DejaVuSans-4f" d="M 2522 4238 
Q 1834 4238 1429 3725 
Q 1025 3213 1025 2328 
Q 1025 1447 1429 934 
Q 1834 422 2522 422 
Q 3209 422 3611 934 
Q 4013 1447 4013 2328 
Q 4013 3213 3611 3725 
Q 3209 4238 2522 4238 
z
M 2522 4750 
Q 3503 4750 4090 4092 
Q 4678 3434 4678 2328 
Q 4678 1225 4090 567 
Q 3503 -91 2522 -91 
Q 1538 -91 948 565 
Q 359 1222 359 2328 
Q 359 3434 948 4092 
Q 1538 4750 2522 4750 
z
" transform="scale(0.015625)"/>
     </defs>
     <use xlink:href="#DejaVuSans-4c"/>
     <use xlink:href="#DejaVuSans-53" x="55.712891"/>
     <use xlink:href="#DejaVuSans-4f" x="119.189453"/>
    </g>
   </g>
   <g id="text_4">
    <!-- TON -->
    <g transform="translate(490.3488 293.631277) scale(0.1 -0.1)">
     <defs>
      <path id="DejaVuSans-54" d="M -19 4666 
L 3928 4666 
L 3928 4134 
L 2272 4134 
L 2272 0 
L 1638 0 
L 1638 4134 
L -19 4134 
L -19 4666 
z
" transform="scale(0.015625)"/>
     </defs>
     <use xlink:href="#DejaVuSans-54"/>
     <use xlink:href="#DejaVuSans-4f" x="61.083984"/>
     <use xlink:href="#DejaVuSans-4e" x="139.794922"/>
    </g>
   </g>
   <g id="text_5">
    <!-- VUT -->
    <g transform="translate(490.3488 293.626518) scale(0.1 -0.1)">
     <defs>
      <path id="DejaVuSans-56" d="M 1831 0 
L 50 4666 
L 709 4666 
L 2188 738 
L 3669 4666 
L 4325 4666 
L 2547 0 
L 1831 0 
z
" transform="scale(0.015625)"/>
      <path id="DejaVuSans-55" d="M 556 4666 
L 1191 4666 
L 1191 1831 
Q 1191 1081 1462 751 
Q 1734 422 2344 422 
Q 2950 422 3222 751 
Q 3494 1081 3494 1831 
L 3494 4666 
L 4128 4666 
L 4128 1753 
Q 4128 841 3676 375 
Q 3225 -91 2344 -91 
Q 1459 -91 1007 375 
Q 556 841 556 1753 
L 556 4666 
z
" transform="scale(0.015625)"/>
     </defs>
     <use xlink:href="#DejaVuSans-56"/>
     <use xlink:href="#DejaVuSans-55" x="68.408203"/>
     <use xlink:href="#DejaVuSans-54" x="141.601562"/>
    </g>
   </g>
   <g id="text_6">
    <!-- MKD -->
    <g transform="translate(490.348799 293.620358) scale(0.1 -0.1)">
     <defs>
      <path id="DejaVuSans-4b" d="M 628 4666 
L 1259 4666 
L 1259 2694 
L 3353 4666 
L 4166 4666 
L 1850 2491 
L 4331 0 
L 3500 0 
L 1259 2247 
L 1259 0 
L 628 0 
L 628 4666 
z
" transform="scale(0.015625)"/>
      <path id="DejaVuSans-44" d="M 1259 4147 
L 1259 519 
L 2022 519 
Q 2988 519 3436 956 
Q 3884 1394 3884 2338 
Q 3884 3275 3436 3711 
Q 2988 4147 2022 4147 
L 1259 4147 
z
M 628 4666 
L 1925 4666 
Q 3281 4666 3915 4102 
Q 4550 3538 4550 2338 
Q 4550 1131 3912 565 
Q 3275 0 1925 0 
L 628 0 
L 628 4666 
z
" transform="scale(0.015625)"/>
     </defs>
     <use xlink:href="#DejaVuSans-4d"/>
     <use xlink:href="#DejaVuSans-4b" x="86.279297"/>
     <use xlink:href="#DejaVuSans-44" x="151.855469"/>
    </g>
   </g>
   <g id="text_7">
    <!-- WSM -->
    <g transform="translate(490.348798 293.613183) scale(0.1 -0.1)">
     <defs>
      <path id="DejaVuSans-57" d="M 213 4666 
L 850 4666 
L 1831 722 
L 2809 4666 
L 3519 4666 
L 4500 722 
L 5478 4666 
L 6119 4666 
L 4947 0 
L 4153 0 
L 3169 4050 
L 2175 0 
L 1381 0 
L 213 4666 
z
" transform="scale(0.015625)"/>
     </defs>
     <use xlink:href="#DejaVuSans-57"/>
     <use xlink:href="#DejaVuSans-53" x="98.876953"/>
     <use xlink:href="#DejaVuSans-4d" x="162.353516"/>
    </g>
   </g>
   <g id="text_8">
    <!-- ABW -->
    <g transform="translate(490.348797 293.60561) scale(0.1 -0.1)">
     <defs>
      <path id="DejaVuSans-41" d="M 2188 4044 
L 1331 1722 
L 3047 1722 
L 2188 4044 
z
M 1831 4666 
L 2547 4666 
L 4325 0 
L 3669 0 
L 3244 1197 
L 1141 1197 
L 716 0 
L 50 0 
L 1831 4666 
z
" transform="scale(0.015625)"/>
     </defs>
     <use xlink:href="#DejaVuSans-41"/>
     <use xlink:href="#DejaVuSans-42" x="68.408203"/>
     <use xlink:href="#DejaVuSans-57" x="133.386719"/>
    </g>
   </g>
   <g id="text_9">
    <!-- COM -->
    <g transform="translate(490.348795 293.597375) scale(0.1 -0.1)">
     <defs>
      <path id="DejaVuSans-43" d="M 4122 4306 
L 4122 3641 
Q 3803 3938 3442 4084 
Q 3081 4231 2675 4231 
Q 1875 4231 1450 3742 
Q 1025 3253 1025 2328 
Q 1025 1406 1450 917 
Q 1875 428 2675 428 
Q 3081 428 3442 575 
Q 3803 722 4122 1019 
L 4122 359 
Q 3791 134 3420 21 
Q 3050 -91 2638 -91 
Q 1578 -91 968 557 
Q 359 1206 359 2328 
Q 359 3453 968 4101 
Q 1578 4750 2638 4750 
Q 3056 4750 3426 4639 
Q 3797 4528 4122 4306 
z
" transform="scale(0.015625)"/>
     </defs>
     <use xlink:href="#DejaVuSans-43"/>
     <use xlink:href="#DejaVuSans-4f" x="69.824219"/>
     <use xlink:href="#DejaVuSans-4d" x="148.535156"/>
    </g>
   </g>
   <g id="text_10">
    <!-- LCA -->
    <g transform="translate(490.348793 293.58811) scale(0.1 -0.1)">
     <use xlink:href="#DejaVuSans-4c"/>
     <use xlink:href="#DejaVuSans-43" x="55.712891"/>
     <use xlink:href="#DejaVuSans-41" x="125.537109"/>
    </g>
   </g>
   <g id="text_11">
    <!-- ALB -->
    <g transform="translate(490.34879 293.578062) scale(0.1 -0.1)">
     <use xlink:href="#DejaVuSans-41"/>
     <use xlink:href="#DejaVuSans-4c" x="68.408203"/>
     <use xlink:href="#DejaVuSans-42" x="124.121094"/>
    </g>
   </g>
   <g id="text_12">
    <!-- BLZ -->
    <g transform="translate(490.348787 293.567682) scale(0.1 -0.1)">
     <defs>
      <path id="DejaVuSans-5a" d="M 359 4666 
L 4025 4666 
L 4025 4184 
L 1075 531 
L 4097 531 
L 4097 0 
L 288 0 
L 288 481 
L 3238 4134 
L 359 4134 
L 359 4666 
z
" transform="scale(0.015625)"/>
     </defs>
     <use xlink:href="#DejaVuSans-42"/>
     <use xlink:href="#DejaVuSans-4c" x="68.603516"/>
     <use xlink:href="#DejaVuSans-5a" x="124.316406"/>
    </g>
   </g>
   <g id="text_13">
    <!-- SLB -->
    <g transform="translate(490.348782 293.555963) scale(0.1 -0.1)">
     <use xlink:href="#DejaVuSans-53"/>
     <use xlink:href="#DejaVuSans-4c" x="63.476562"/>
     <use xlink:href="#DejaVuSans-42" x="119.189453"/>
    </g>
   </g>
   <g id="text_14">
    <!-- TLS -->
    <g transform="translate(490.348776 293.542113) scale(0.1 -0.1)">
     <use xlink:href="#DejaVuSans-54"/>
     <use xlink:href="#DejaVuSans-4c" x="61.083984"/>
     <use xlink:href="#DejaVuSans-53" x="116.796875"/>
    </g>
   </g>
   <g id="text_15">
    <!-- MDA -->
    <g transform="translate(490.348768 293.52714) scale(0.1 -0.1)">
     <use xlink:href="#DejaVuSans-4d"/>
     <use xlink:href="#DejaVuSans-44" x="86.279297"/>
     <use xlink:href="#DejaVuSans-41" x="161.53125"/>
    </g>
   </g>
   <g id="text_16">
    <!-- TJK -->
    <g transform="translate(490.348758 293.511689) scale(0.1 -0.1)">
     <defs>
      <path id="DejaVuSans-4a" d="M 628 4666 
L 1259 4666 
L 1259 325 
Q 1259 -519 939 -900 
Q 619 -1281 -91 -1281 
L -331 -1281 
L -331 -750 
L -134 -750 
Q 284 -750 456 -515 
Q 628 -281 628 325 
L 628 4666 
z
" transform="scale(0.015625)"/>
     </defs>
     <use xlink:href="#DejaVuSans-54"/>
     <use xlink:href="#DejaVuSans-4a" x="61.083984"/>
     <use xlink:href="#DejaVuSans-4b" x="90.576172"/>
    </g>
   </g>
   <g id="text_17">
    <!-- CAF -->
    <g transform="translate(490.348747 293.49543) scale(0.1 -0.1)">
     <defs>
      <path id="DejaVuSans-46" d="M 628 4666 
L 3309 4666 
L 3309 4134 
L 1259 4134 
L 1259 2759 
L 3109 2759 
L 3109 2228 
L 1259 2228 
L 1259 0 
L 628 0 
L 628 4666 
z
" transform="scale(0.015625)"/>
     </defs>
     <use xlink:href="#DejaVuSans-43"/>
     <use xlink:href="#DejaVuSans-41" x="69.824219"/>
     <use xlink:href="#DejaVuSans-46" x="138.232422"/>
    </g>
   </g>
   <g id="text_18">
    <!-- ERI -->
    <g transform="translate(490.348733 293.47749) scale(0.1 -0.1)">
     <defs>
      <path id="DejaVuSans-52" d="M 2841 2188 
Q 3044 2119 3236 1894 
Q 3428 1669 3622 1275 
L 4263 0 
L 3584 0 
L 2988 1197 
Q 2756 1666 2539 1819 
Q 2322 1972 1947 1972 
L 1259 1972 
L 1259 0 
L 628 0 
L 628 4666 
L 2053 4666 
Q 2853 4666 3247 4331 
Q 3641 3997 3641 3322 
Q 3641 2881 3436 2590 
Q 3231 2300 2841 2188 
z
M 1259 4147 
L 1259 2491 
L 2053 2491 
Q 2509 2491 2742 2702 
Q 2975 2913 2975 3322 
Q 2975 3731 2742 3939 
Q 2509 4147 2053 4147 
L 1259 4147 
z
" transform="scale(0.015625)"/>
     </defs>
     <use xlink:href="#DejaVuSans-45"/>
     <use xlink:href="#DejaVuSans-52" x="63.183594"/>
     <use xlink:href="#DejaVuSans-49" x="132.666016"/>
    </g>
   </g>
   <g id="text_19">
    <!-- NCL -->
    <g transform="translate(490.348714 293.4565) scale(0.1 -0.1)">
     <use xlink:href="#DejaVuSans-4e"/>
     <use xlink:href="#DejaVuSans-43" x="74.804688"/>
     <use xlink:href="#DejaVuSans-4c" x="144.628906"/>
    </g>
   </g>
   <g id="text_20">
    <!-- GNB -->
    <g transform="translate(490.348691 293.433427) scale(0.1 -0.1)">
     <defs>
      <path id="DejaVuSans-47" d="M 3809 666 
L 3809 1919 
L 2778 1919 
L 2778 2438 
L 4434 2438 
L 4434 434 
Q 4069 175 3628 42 
Q 3188 -91 2688 -91 
Q 1594 -91 976 548 
Q 359 1188 359 2328 
Q 359 3472 976 4111 
Q 1594 4750 2688 4750 
Q 3144 4750 3555 4637 
Q 3966 4525 4313 4306 
L 4313 3634 
Q 3963 3931 3569 4081 
Q 3175 4231 2741 4231 
Q 1884 4231 1454 3753 
Q 1025 3275 1025 2328 
Q 1025 1384 1454 906 
Q 1884 428 2741 428 
Q 3075 428 3337 486 
Q 3600 544 3809 666 
z
" transform="scale(0.015625)"/>
     </defs>
     <use xlink:href="#DejaVuSans-47"/>
     <use xlink:href="#DejaVuSans-4e" x="77.490234"/>
     <use xlink:href="#DejaVuSans-42" x="152.294922"/>
    </g>
   </g>
   <g id="text_21">
    <!-- PYF -->
    <g transform="translate(490.348665 293.409447) scale(0.1 -0.1)">
     <defs>
      <path id="DejaVuSans-50" d="M 1259 4147 
L 1259 2394 
L 2053 2394 
Q 2494 2394 2734 2622 
Q 2975 2850 2975 3272 
Q 2975 3691 2734 3919 
Q 2494 4147 2053 4147 
L 1259 4147 
z
M 628 4666 
L 2053 4666 
Q 2838 4666 3239 4311 
Q 3641 3956 3641 3272 
Q 3641 2581 3239 2228 
Q 2838 1875 2053 1875 
L 1259 1875 
L 1259 0 
L 628 0 
L 628 4666 
z
" transform="scale(0.015625)"/>
      <path id="DejaVuSans-59" d="M -13 4666 
L 666 4666 
L 1959 2747 
L 3244 4666 
L 3922 4666 
L 2272 2222 
L 2272 0 
L 1638 0 
L 1638 2222 
L -13 4666 
z
" transform="scale(0.015625)"/>
     </defs>
     <use xlink:href="#DejaVuSans-50"/>
     <use xlink:href="#DejaVuSans-59" x="58.052734"/>
     <use xlink:href="#DejaVuSans-46" x="119.136719"/>
    </g>
   </g>
   <g id="text_22">
    <!-- BDI -->
    <g transform="translate(490.348634 293.384681) scale(0.1 -0.1)">
     <use xlink:href="#DejaVuSans-42"/>
     <use xlink:href="#DejaVuSans-44" x="68.603516"/>
     <use xlink:href="#DejaVuSans-49" x="145.605469"/>
    </g>
   </g>
   <g id="text_23">
    <!-- AFG -->
    <g transform="translate(490.348598 293.35827) scale(0.1 -0.1)">
     <use xlink:href="#DejaVuSans-41"/>
     <use xlink:href="#DejaVuSans-46" x="68.408203"/>
     <use xlink:href="#DejaVuSans-47" x="125.927734"/>
    </g>
   </g>
   <g id="text_24">
    <!-- LBR -->
    <g transform="translate(490.348555 293.329976) scale(0.1 -0.1)">
     <use xlink:href="#DejaVuSans-4c"/>
     <use xlink:href="#DejaVuSans-42" x="55.712891"/>
     <use xlink:href="#DejaVuSans-52" x="124.316406"/>
    </g>
   </g>
   <g id="text_25">
    <!-- GMB -->
    <g transform="translate(490.348507 293.300942) scale(0.1 -0.1)">
     <use xlink:href="#DejaVuSans-47"/>
     <use xlink:href="#DejaVuSans-4d" x="77.490234"/>
     <use xlink:href="#DejaVuSans-42" x="163.769531"/>
    </g>
   </g>
   <g id="text_26">
    <!-- BHS -->
    <g transform="translate(490.348451 293.27052) scale(0.1 -0.1)">
     <use xlink:href="#DejaVuSans-42"/>
     <use xlink:href="#DejaVuSans-48" x="68.603516"/>
     <use xlink:href="#DejaVuSans-53" x="143.798828"/>
    </g>
   </g>
   <g id="text_27">
    <!-- FJI -->
    <g transform="translate(490.348387 293.237916) scale(0.1 -0.1)">
     <use xlink:href="#DejaVuSans-46"/>
     <use xlink:href="#DejaVuSans-4a" x="57.519531"/>
     <use xlink:href="#DejaVuSans-49" x="87.011719"/>
    </g>
   </g>
   <g id="text_28">
    <!-- SWZ -->
    <g transform="translate(490.348314 293.20379) scale(0.1 -0.1)">
     <use xlink:href="#DejaVuSans-53"/>
     <use xlink:href="#DejaVuSans-57" x="63.476562"/>
     <use xlink:href="#DejaVuSans-5a" x="162.353516"/>
    </g>
   </g>
   <g id="text_29">
    <!-- SUR -->
    <g transform="translate(490.34823 293.167699) scale(0.1 -0.1)">
     <use xlink:href="#DejaVuSans-53"/>
     <use xlink:href="#DejaVuSans-55" x="63.476562"/>
     <use xlink:href="#DejaVuSans-52" x="136.669922"/>
    </g>
   </g>
   <g id="text_30">
    <!-- UKR -->
    <g transform="translate(490.348134 293.12957) scale(0.1 -0.1)">
     <use xlink:href="#DejaVuSans-55"/>
     <use xlink:href="#DejaVuSans-4b" x="73.193359"/>
     <use xlink:href="#DejaVuSans-52" x="138.769531"/>
    </g>
   </g>
   <g id="text_31">
    <!-- SRB -->
    <g transform="translate(490.348022 293.08846) scale(0.1 -0.1)">
     <use xlink:href="#DejaVuSans-53"/>
     <use xlink:href="#DejaVuSans-52" x="63.476562"/>
     <use xlink:href="#DejaVuSans-42" x="132.958984"/>
    </g>
   </g>
   <g id="text_32">
    <!-- DJI -->
    <g transform="translate(490.347893 293.044332) scale(0.1 -0.1)">
     <use xlink:href="#DejaVuSans-44"/>
     <use xlink:href="#DejaVuSans-4a" x="77.001953"/>
     <use xlink:href="#DejaVuSans-49" x="106.494141"/>
    </g>
   </g>
   <g id="text_33">
    <!-- GUY -->
    <g transform="translate(490.347738 292.995489) scale(0.1 -0.1)">
     <use xlink:href="#DejaVuSans-47"/>
     <use xlink:href="#DejaVuSans-55" x="77.490234"/>
     <use xlink:href="#DejaVuSans-59" x="150.683594"/>
    </g>
   </g>
   <g id="text_34">
    <!-- TGO -->
    <g transform="translate(490.347554 292.941918) scale(0.1 -0.1)">
     <use xlink:href="#DejaVuSans-54"/>
     <use xlink:href="#DejaVuSans-47" x="61.083984"/>
     <use xlink:href="#DejaVuSans-4f" x="138.574219"/>
    </g>
   </g>
   <g id="text_35">
    <!-- SLE -->
    <g transform="translate(490.347347 292.886206) scale(0.1 -0.1)">
     <use xlink:href="#DejaVuSans-53"/>
     <use xlink:href="#DejaVuSans-4c" x="63.476562"/>
     <use xlink:href="#DejaVuSans-45" x="119.189453"/>
    </g>
   </g>
   <g id="text_36">
    <!-- SOM -->
    <g transform="translate(490.34711 292.827267) scale(0.1 -0.1)">
     <use xlink:href="#DejaVuSans-53"/>
     <use xlink:href="#DejaVuSans-4f" x="63.476562"/>
     <use xlink:href="#DejaVuSans-4d" x="142.1875"/>
    </g>
   </g>
   <g id="text_37">
    <!-- RWA -->
    <g transform="translate(490.346847 292.766237) scale(0.1 -0.1)">
     <use xlink:href="#DejaVuSans-52"/>
     <use xlink:href="#DejaVuSans-57" x="65.482422"/>
     <use xlink:href="#DejaVuSans-41" x="158.859375"/>
    </g>
   </g>
   <g id="text_38">
    <!-- KAZ -->
    <g transform="translate(490.346541 292.700458) scale(0.1 -0.1)">
     <use xlink:href="#DejaVuSans-4b"/>
     <use xlink:href="#DejaVuSans-41" x="63.826172"/>
     <use xlink:href="#DejaVuSans-5a" x="132.234375"/>
    </g>
   </g>
   <g id="text_39">
    <!-- PSE -->
    <g transform="translate(490.346171 292.626324) scale(0.1 -0.1)">
     <use xlink:href="#DejaVuSans-50"/>
     <use xlink:href="#DejaVuSans-53" x="60.302734"/>
     <use xlink:href="#DejaVuSans-45" x="123.779297"/>
    </g>
   </g>
   <g id="text_40">
    <!-- HTI -->
    <g transform="translate(490.345748 292.547898) scale(0.1 -0.1)">
     <use xlink:href="#DejaVuSans-48"/>
     <use xlink:href="#DejaVuSans-54" x="75.195312"/>
     <use xlink:href="#DejaVuSans-49" x="136.279297"/>
    </g>
   </g>
   <g id="text_41">
    <!-- NZL -->
    <g transform="translate(490.345263 292.464418) scale(0.1 -0.1)">
     <use xlink:href="#DejaVuSans-4e"/>
     <use xlink:href="#DejaVuSans-5a" x="74.804688"/>
     <use xlink:href="#DejaVuSans-4c" x="143.310547"/>
    </g>
   </g>
   <g id="text_42">
    <!-- JAM -->
    <g transform="translate(490.344706 292.375271) scale(0.1 -0.1)">
     <use xlink:href="#DejaVuSans-4a"/>
     <use xlink:href="#DejaVuSans-41" x="27.742188"/>
     <use xlink:href="#DejaVuSans-4d" x="96.150391"/>
    </g>
   </g>
   <g id="text_43">
    <!-- MRT -->
    <g transform="translate(490.344101 292.285159) scale(0.1 -0.1)">
     <use xlink:href="#DejaVuSans-4d"/>
     <use xlink:href="#DejaVuSans-52" x="86.279297"/>
     <use xlink:href="#DejaVuSans-54" x="148.511719"/>
    </g>
   </g>
   <g id="text_44">
    <!-- MWI -->
    <g transform="translate(490.343428 292.19139) scale(0.1 -0.1)">
     <use xlink:href="#DejaVuSans-4d"/>
     <use xlink:href="#DejaVuSans-57" x="86.279297"/>
     <use xlink:href="#DejaVuSans-49" x="185.15625"/>
    </g>
   </g>
   <g id="text_45">
    <!-- BEN -->
    <g transform="translate(490.342637 292.088482) scale(0.1 -0.1)">
     <use xlink:href="#DejaVuSans-42"/>
     <use xlink:href="#DejaVuSans-45" x="68.603516"/>
     <use xlink:href="#DejaVuSans-4e" x="131.787109"/>
    </g>
   </g>
   <g id="text_46">
    <!-- TTO -->
    <g transform="translate(490.341727 291.977849) scale(0.1 -0.1)">
     <use xlink:href="#DejaVuSans-54"/>
     <use xlink:href="#DejaVuSans-54" x="59.333984"/>
     <use xlink:href="#DejaVuSans-4f" x="120.417969"/>
    </g>
   </g>
   <g id="text_47">
    <!-- BRN -->
    <g transform="translate(490.340732 291.864857) scale(0.1 -0.1)">
     <use xlink:href="#DejaVuSans-42"/>
     <use xlink:href="#DejaVuSans-52" x="68.603516"/>
     <use xlink:href="#DejaVuSans-4e" x="138.085938"/>
    </g>
   </g>
   <g id="text_48">
    <!-- NER -->
    <g transform="translate(490.339656 291.750276) scale(0.1 -0.1)">
     <use xlink:href="#DejaVuSans-4e"/>
     <use xlink:href="#DejaVuSans-45" x="74.804688"/>
     <use xlink:href="#DejaVuSans-52" x="137.988281"/>
    </g>
   </g>
   <g id="text_49">
    <!-- NAM -->
    <g transform="translate(490.338491 291.63347) scale(0.1 -0.1)">
     <use xlink:href="#DejaVuSans-4e"/>
     <use xlink:href="#DejaVuSans-41" x="74.804688"/>
     <use xlink:href="#DejaVuSans-4d" x="143.212891"/>
    </g>
   </g>
   <g id="text_50">
    <!-- LAO -->
    <g transform="translate(490.337241 291.51538) scale(0.1 -0.1)">
     <use xlink:href="#DejaVuSans-4c"/>
     <use xlink:href="#DejaVuSans-41" x="57.962891"/>
     <use xlink:href="#DejaVuSans-4f" x="124.621094"/>
    </g>
   </g>
   <g id="text_51">
    <!-- MDG -->
    <g transform="translate(490.335914 291.396764) scale(0.1 -0.1)">
     <use xlink:href="#DejaVuSans-4d"/>
     <use xlink:href="#DejaVuSans-44" x="86.279297"/>
     <use xlink:href="#DejaVuSans-47" x="163.28125"/>
    </g>
   </g>
   <g id="text_52">
    <!-- MAC -->
    <g transform="translate(490.334476 291.274934) scale(0.1 -0.1)">
     <use xlink:href="#DejaVuSans-4d"/>
     <use xlink:href="#DejaVuSans-41" x="86.279297"/>
     <use xlink:href="#DejaVuSans-43" x="152.9375"/>
    </g>
   </g>
   <g id="text_53">
    <!-- SYR -->
    <g transform="translate(490.332906 291.148745) scale(0.1 -0.1)">
     <use xlink:href="#DejaVuSans-53"/>
     <use xlink:href="#DejaVuSans-59" x="63.476562"/>
     <use xlink:href="#DejaVuSans-52" x="124.560547"/>
    </g>
   </g>
   <g id="text_54">
    <!-- URY -->
    <g transform="translate(490.331207 291.019006) scale(0.1 -0.1)">
     <use xlink:href="#DejaVuSans-55"/>
     <use xlink:href="#DejaVuSans-52" x="73.193359"/>
     <use xlink:href="#DejaVuSans-59" x="136.300781"/>
    </g>
   </g>
   <g id="text_55">
    <!-- GNQ -->
    <g transform="translate(490.329339 290.883457) scale(0.1 -0.1)">
     <defs>
      <path id="DejaVuSans-51" d="M 2522 4238 
Q 1834 4238 1429 3725 
Q 1025 3213 1025 2328 
Q 1025 1447 1429 934 
Q 1834 422 2522 422 
Q 3209 422 3611 934 
Q 4013 1447 4013 2328 
Q 4013 3213 3611 3725 
Q 3209 4238 2522 4238 
z
M 3406 84 
L 4238 -825 
L 3475 -825 
L 2784 -78 
Q 2681 -84 2626 -87 
Q 2572 -91 2522 -91 
Q 1538 -91 948 567 
Q 359 1225 359 2328 
Q 359 3434 948 4092 
Q 1538 4750 2522 4750 
Q 3503 4750 4090 4092 
Q 4678 3434 4678 2328 
Q 4678 1516 4351 937 
Q 4025 359 3406 84 
z
" transform="scale(0.015625)"/>
     </defs>
     <use xlink:href="#DejaVuSans-47"/>
     <use xlink:href="#DejaVuSans-4e" x="77.490234"/>
     <use xlink:href="#DejaVuSans-51" x="152.294922"/>
    </g>
   </g>
   <g id="text_56">
    <!-- GIN -->
    <g transform="translate(490.327314 290.743624) scale(0.1 -0.1)">
     <use xlink:href="#DejaVuSans-47"/>
     <use xlink:href="#DejaVuSans-49" x="77.490234"/>
     <use xlink:href="#DejaVuSans-4e" x="106.982422"/>
    </g>
   </g>
   <g id="text_57">
    <!-- BOL -->
    <g transform="translate(490.325136 290.600403) scale(0.1 -0.1)">
     <use xlink:href="#DejaVuSans-42"/>
     <use xlink:href="#DejaVuSans-4f" x="66.853516"/>
     <use xlink:href="#DejaVuSans-4c" x="145.564453"/>
    </g>
   </g>
   <g id="text_58">
    <!-- TCD -->
    <g transform="translate(490.322789 290.453278) scale(0.1 -0.1)">
     <use xlink:href="#DejaVuSans-54"/>
     <use xlink:href="#DejaVuSans-43" x="55.208984"/>
     <use xlink:href="#DejaVuSans-44" x="125.033203"/>
    </g>
   </g>
   <g id="text_59">
    <!-- ZWE -->
    <g transform="translate(490.320292 290.303811) scale(0.1 -0.1)">
     <use xlink:href="#DejaVuSans-5a"/>
     <use xlink:href="#DejaVuSans-57" x="68.505859"/>
     <use xlink:href="#DejaVuSans-45" x="167.382812"/>
    </g>
   </g>
   <g id="text_60">
    <!-- KHM -->
    <g transform="translate(490.317608 290.150342) scale(0.1 -0.1)">
     <use xlink:href="#DejaVuSans-4b"/>
     <use xlink:href="#DejaVuSans-48" x="65.576172"/>
     <use xlink:href="#DejaVuSans-4d" x="140.771484"/>
    </g>
   </g>
   <g id="text_61">
    <!-- COG -->
    <g transform="translate(490.3147 289.991354) scale(0.1 -0.1)">
     <use xlink:href="#DejaVuSans-43"/>
     <use xlink:href="#DejaVuSans-4f" x="69.824219"/>
     <use xlink:href="#DejaVuSans-47" x="148.535156"/>
    </g>
   </g>
   <g id="text_62">
    <!-- GAB -->
    <g transform="translate(490.311594 289.828867) scale(0.1 -0.1)">
     <use xlink:href="#DejaVuSans-47"/>
     <use xlink:href="#DejaVuSans-41" x="77.490234"/>
     <use xlink:href="#DejaVuSans-42" x="145.898438"/>
    </g>
   </g>
   <g id="text_63">
    <!-- PNG -->
    <g transform="translate(490.308271 289.66234) scale(0.1 -0.1)">
     <use xlink:href="#DejaVuSans-50"/>
     <use xlink:href="#DejaVuSans-4e" x="60.302734"/>
     <use xlink:href="#DejaVuSans-47" x="135.107422"/>
    </g>
   </g>
   <g id="text_64">
    <!-- UZB -->
    <g transform="translate(490.304712 289.491414) scale(0.1 -0.1)">
     <use xlink:href="#DejaVuSans-55"/>
     <use xlink:href="#DejaVuSans-5a" x="71.443359"/>
     <use xlink:href="#DejaVuSans-42" x="139.949219"/>
    </g>
   </g>
   <g id="text_65">
    <!-- MOZ -->
    <g transform="translate(490.300973 289.319143) scale(0.1 -0.1)">
     <use xlink:href="#DejaVuSans-4d"/>
     <use xlink:href="#DejaVuSans-4f" x="86.279297"/>
     <use xlink:href="#DejaVuSans-5a" x="164.990234"/>
    </g>
   </g>
   <g id="text_66">
    <!-- BWA -->
    <g transform="translate(490.296998 289.143215) scale(0.1 -0.1)">
     <use xlink:href="#DejaVuSans-42"/>
     <use xlink:href="#DejaVuSans-57" x="64.978516"/>
     <use xlink:href="#DejaVuSans-41" x="158.355469"/>
    </g>
   </g>
   <g id="text_67">
    <!-- NPL -->
    <g transform="translate(490.292733 288.961785) scale(0.1 -0.1)">
     <use xlink:href="#DejaVuSans-4e"/>
     <use xlink:href="#DejaVuSans-50" x="74.804688"/>
     <use xlink:href="#DejaVuSans-4c" x="135.107422"/>
    </g>
   </g>
   <g id="text_68">
    <!-- BFA -->
    <g transform="translate(490.288207 288.776707) scale(0.1 -0.1)">
     <use xlink:href="#DejaVuSans-42"/>
     <use xlink:href="#DejaVuSans-46" x="68.603516"/>
     <use xlink:href="#DejaVuSans-41" x="116.998047"/>
    </g>
   </g>
   <g id="text_69">
    <!-- HND -->
    <g transform="translate(490.283277 288.582797) scale(0.1 -0.1)">
     <use xlink:href="#DejaVuSans-48"/>
     <use xlink:href="#DejaVuSans-4e" x="75.195312"/>
     <use xlink:href="#DejaVuSans-44" x="150"/>
    </g>
   </g>
   <g id="text_70">
    <!-- CHL -->
    <g transform="translate(490.277926 288.380375) scale(0.1 -0.1)">
     <use xlink:href="#DejaVuSans-43"/>
     <use xlink:href="#DejaVuSans-48" x="69.824219"/>
     <use xlink:href="#DejaVuSans-4c" x="145.019531"/>
    </g>
   </g>
   <g id="text_71">
    <!-- AZE -->
    <g transform="translate(490.272166 288.170888) scale(0.1 -0.1)">
     <use xlink:href="#DejaVuSans-41"/>
     <use xlink:href="#DejaVuSans-5a" x="68.408203"/>
     <use xlink:href="#DejaVuSans-45" x="136.914062"/>
    </g>
   </g>
   <g id="text_72">
    <!-- NIC -->
    <g transform="translate(490.265975 287.954332) scale(0.1 -0.1)">
     <use xlink:href="#DejaVuSans-4e"/>
     <use xlink:href="#DejaVuSans-49" x="74.804688"/>
     <use xlink:href="#DejaVuSans-43" x="104.296875"/>
    </g>
   </g>
   <g id="text_73">
    <!-- LBN -->
    <g transform="translate(490.259213 287.726894) scale(0.1 -0.1)">
     <use xlink:href="#DejaVuSans-4c"/>
     <use xlink:href="#DejaVuSans-42" x="55.712891"/>
     <use xlink:href="#DejaVuSans-4e" x="124.316406"/>
    </g>
   </g>
   <g id="text_74">
    <!-- TKM -->
    <g transform="translate(490.251813 287.487581) scale(0.1 -0.1)">
     <use xlink:href="#DejaVuSans-54"/>
     <use xlink:href="#DejaVuSans-4b" x="61.083984"/>
     <use xlink:href="#DejaVuSans-4d" x="126.660156"/>
    </g>
   </g>
   <g id="text_75">
    <!-- SLV -->
    <g transform="translate(490.243701 287.235551) scale(0.1 -0.1)">
     <use xlink:href="#DejaVuSans-53"/>
     <use xlink:href="#DejaVuSans-4c" x="63.476562"/>
     <use xlink:href="#DejaVuSans-56" x="108.189453"/>
    </g>
   </g>
   <g id="text_76">
    <!-- PRI -->
    <g transform="translate(490.234817 286.970466) scale(0.1 -0.1)">
     <use xlink:href="#DejaVuSans-50"/>
     <use xlink:href="#DejaVuSans-52" x="60.302734"/>
     <use xlink:href="#DejaVuSans-49" x="129.785156"/>
    </g>
   </g>
   <g id="text_77">
    <!-- JOR -->
    <g transform="translate(490.225457 286.702149) scale(0.1 -0.1)">
     <use xlink:href="#DejaVuSans-4a"/>
     <use xlink:href="#DejaVuSans-4f" x="29.492188"/>
     <use xlink:href="#DejaVuSans-52" x="108.203125"/>
    </g>
   </g>
   <g id="text_78">
    <!-- SEN -->
    <g transform="translate(490.215619 286.430887) scale(0.1 -0.1)">
     <use xlink:href="#DejaVuSans-53"/>
     <use xlink:href="#DejaVuSans-45" x="63.476562"/>
     <use xlink:href="#DejaVuSans-4e" x="126.660156"/>
    </g>
   </g>
   <g id="text_79">
    <!-- LBY -->
    <g transform="translate(490.205218 286.154779) scale(0.1 -0.1)">
     <use xlink:href="#DejaVuSans-4c"/>
     <use xlink:href="#DejaVuSans-42" x="55.712891"/>
     <use xlink:href="#DejaVuSans-59" x="118.816406"/>
    </g>
   </g>
   <g id="text_80">
    <!-- ZMB -->
    <g transform="translate(490.19418 285.872538) scale(0.1 -0.1)">
     <use xlink:href="#DejaVuSans-5a"/>
     <use xlink:href="#DejaVuSans-4d" x="68.505859"/>
     <use xlink:href="#DejaVuSans-42" x="154.785156"/>
    </g>
   </g>
   <g id="text_81">
    <!-- CRI -->
    <g transform="translate(490.182491 285.584425) scale(0.1 -0.1)">
     <use xlink:href="#DejaVuSans-43"/>
     <use xlink:href="#DejaVuSans-52" x="69.824219"/>
     <use xlink:href="#DejaVuSans-49" x="139.306641"/>
    </g>
   </g>
   <g id="text_82">
    <!-- YEM -->
    <g transform="translate(490.170224 285.29277) scale(0.1 -0.1)">
     <use xlink:href="#DejaVuSans-59"/>
     <use xlink:href="#DejaVuSans-45" x="61.083984"/>
     <use xlink:href="#DejaVuSans-4d" x="124.267578"/>
    </g>
   </g>
   <g id="text_83">
    <!-- UGA -->
    <g transform="translate(490.157462 284.999816) scale(0.1 -0.1)">
     <use xlink:href="#DejaVuSans-55"/>
     <use xlink:href="#DejaVuSans-47" x="73.193359"/>
     <use xlink:href="#DejaVuSans-41" x="150.683594"/>
    </g>
   </g>
   <g id="text_84">
    <!-- PRY -->
    <g transform="translate(490.143965 284.700432) scale(0.1 -0.1)">
     <use xlink:href="#DejaVuSans-50"/>
     <use xlink:href="#DejaVuSans-52" x="60.302734"/>
     <use xlink:href="#DejaVuSans-59" x="123.410156"/>
    </g>
   </g>
   <g id="text_85">
    <!-- MLI -->
    <g transform="translate(490.129539 284.39119) scale(0.1 -0.1)">
     <use xlink:href="#DejaVuSans-4d"/>
     <use xlink:href="#DejaVuSans-4c" x="86.279297"/>
     <use xlink:href="#DejaVuSans-49" x="141.992188"/>
    </g>
   </g>
   <g id="text_86">
    <!-- PAN -->
    <g transform="translate(490.113269 284.054403) scale(0.1 -0.1)">
     <use xlink:href="#DejaVuSans-50"/>
     <use xlink:href="#DejaVuSans-41" x="53.927734"/>
     <use xlink:href="#DejaVuSans-4e" x="122.335938"/>
    </g>
   </g>
   <g id="text_87">
    <!-- CIV -->
    <g transform="translate(490.094799 283.685913) scale(0.1 -0.1)">
     <use xlink:href="#DejaVuSans-43"/>
     <use xlink:href="#DejaVuSans-49" x="69.824219"/>
     <use xlink:href="#DejaVuSans-56" x="99.316406"/>
    </g>
   </g>
   <g id="text_88">
    <!-- COD -->
    <g transform="translate(490.075076 283.306956) scale(0.1 -0.1)">
     <use xlink:href="#DejaVuSans-43"/>
     <use xlink:href="#DejaVuSans-4f" x="69.824219"/>
     <use xlink:href="#DejaVuSans-44" x="148.535156"/>
    </g>
   </g>
   <g id="text_89">
    <!-- CMR -->
    <g transform="translate(490.054145 282.919474) scale(0.1 -0.1)">
     <use xlink:href="#DejaVuSans-43"/>
     <use xlink:href="#DejaVuSans-4d" x="69.824219"/>
     <use xlink:href="#DejaVuSans-52" x="156.103516"/>
    </g>
   </g>
   <g id="text_90">
    <!-- TUN -->
    <g transform="translate(490.032024 282.52468) scale(0.1 -0.1)">
     <use xlink:href="#DejaVuSans-54"/>
     <use xlink:href="#DejaVuSans-55" x="61.083984"/>
     <use xlink:href="#DejaVuSans-4e" x="134.277344"/>
    </g>
   </g>
   <g id="text_91">
    <!-- KEN -->
    <g transform="translate(490.006746 282.09009) scale(0.1 -0.1)">
     <use xlink:href="#DejaVuSans-4b"/>
     <use xlink:href="#DejaVuSans-45" x="65.576172"/>
     <use xlink:href="#DejaVuSans-4e" x="128.759766"/>
    </g>
   </g>
   <g id="text_92">
    <!-- GTM -->
    <g transform="translate(489.976908 281.597348) scale(0.1 -0.1)">
     <use xlink:href="#DejaVuSans-47"/>
     <use xlink:href="#DejaVuSans-54" x="73.865234"/>
     <use xlink:href="#DejaVuSans-4d" x="134.949219"/>
    </g>
   </g>
   <g id="text_93">
    <!-- AGO -->
    <g transform="translate(489.944316 281.081293) scale(0.1 -0.1)">
     <use xlink:href="#DejaVuSans-41"/>
     <use xlink:href="#DejaVuSans-47" x="66.658203"/>
     <use xlink:href="#DejaVuSans-4f" x="144.148438"/>
    </g>
   </g>
   <g id="text_94">
    <!-- TZA -->
    <g transform="translate(489.908612 280.53936) scale(0.1 -0.1)">
     <use xlink:href="#DejaVuSans-54"/>
     <use xlink:href="#DejaVuSans-5a" x="61.083984"/>
     <use xlink:href="#DejaVuSans-41" x="129.589844"/>
    </g>
   </g>
   <g id="text_95">
    <!-- BHR -->
    <g transform="translate(489.869592 279.971747) scale(0.1 -0.1)">
     <use xlink:href="#DejaVuSans-42"/>
     <use xlink:href="#DejaVuSans-48" x="68.603516"/>
     <use xlink:href="#DejaVuSans-52" x="143.798828"/>
    </g>
   </g>
   <g id="text_96">
    <!-- ETH -->
    <g transform="translate(489.828506 279.398633) scale(0.1 -0.1)">
     <use xlink:href="#DejaVuSans-45"/>
     <use xlink:href="#DejaVuSans-54" x="63.183594"/>
     <use xlink:href="#DejaVuSans-48" x="124.267578"/>
    </g>
   </g>
   <g id="text_97">
    <!-- ECU -->
    <g transform="translate(489.784957 278.815448) scale(0.1 -0.1)">
     <use xlink:href="#DejaVuSans-45"/>
     <use xlink:href="#DejaVuSans-43" x="63.183594"/>
     <use xlink:href="#DejaVuSans-55" x="133.007812"/>
    </g>
   </g>
   <g id="text_98">
    <!-- GHA -->
    <g transform="translate(489.738211 278.21412) scale(0.1 -0.1)">
     <use xlink:href="#DejaVuSans-47"/>
     <use xlink:href="#DejaVuSans-48" x="77.490234"/>
     <use xlink:href="#DejaVuSans-41" x="152.685547"/>
    </g>
   </g>
   <g id="text_99">
    <!-- DOM -->
    <g transform="translate(489.688692 277.601831) scale(0.1 -0.1)">
     <use xlink:href="#DejaVuSans-44"/>
     <use xlink:href="#DejaVuSans-4f" x="77.001953"/>
     <use xlink:href="#DejaVuSans-4d" x="155.712891"/>
    </g>
   </g>
   <g id="text_100">
    <!-- PER -->
    <g transform="translate(489.636481 276.980778) scale(0.1 -0.1)">
     <use xlink:href="#DejaVuSans-50"/>
     <use xlink:href="#DejaVuSans-45" x="60.302734"/>
     <use xlink:href="#DejaVuSans-52" x="123.486328"/>
    </g>
   </g>
   <g id="text_101">
    <!-- MAR -->
    <g transform="translate(489.576699 276.297145) scale(0.1 -0.1)">
     <use xlink:href="#DejaVuSans-4d"/>
     <use xlink:href="#DejaVuSans-41" x="86.279297"/>
     <use xlink:href="#DejaVuSans-52" x="154.6875"/>
    </g>
   </g>
   <g id="text_102">
    <!-- HKG -->
    <g transform="translate(489.506267 275.525056) scale(0.1 -0.1)">
     <use xlink:href="#DejaVuSans-48"/>
     <use xlink:href="#DejaVuSans-4b" x="75.195312"/>
     <use xlink:href="#DejaVuSans-47" x="140.771484"/>
    </g>
   </g>
   <g id="text_103">
    <!-- CUB -->
    <g transform="translate(489.427453 274.698664) scale(0.1 -0.1)">
     <use xlink:href="#DejaVuSans-43"/>
     <use xlink:href="#DejaVuSans-55" x="69.824219"/>
     <use xlink:href="#DejaVuSans-42" x="143.017578"/>
    </g>
   </g>
   <g id="text_104">
    <!-- KWT -->
    <g transform="translate(489.343006 273.851818) scale(0.1 -0.1)">
     <use xlink:href="#DejaVuSans-4b"/>
     <use xlink:href="#DejaVuSans-57" x="61.951172"/>
     <use xlink:href="#DejaVuSans-54" x="160.828125"/>
    </g>
   </g>
   <g id="text_105">
    <!-- QAT -->
    <g transform="translate(489.25477 273.004444) scale(0.1 -0.1)">
     <use xlink:href="#DejaVuSans-51"/>
     <use xlink:href="#DejaVuSans-41" x="78.710938"/>
     <use xlink:href="#DejaVuSans-54" x="139.369141"/>
    </g>
   </g>
   <g id="text_106">
    <!-- SDN -->
    <g transform="translate(489.159855 272.130564) scale(0.1 -0.1)">
     <use xlink:href="#DejaVuSans-53"/>
     <use xlink:href="#DejaVuSans-44" x="63.476562"/>
     <use xlink:href="#DejaVuSans-4e" x="140.478516"/>
    </g>
   </g>
   <g id="text_107">
    <!-- MMR -->
    <g transform="translate(489.054347 271.199534) scale(0.1 -0.1)">
     <use xlink:href="#DejaVuSans-4d"/>
     <use xlink:href="#DejaVuSans-4d" x="86.279297"/>
     <use xlink:href="#DejaVuSans-52" x="172.558594"/>
    </g>
   </g>
   <g id="text_108">
    <!-- LKA -->
    <g transform="translate(488.934867 270.190379) scale(0.1 -0.1)">
     <use xlink:href="#DejaVuSans-4c"/>
     <use xlink:href="#DejaVuSans-4b" x="55.712891"/>
     <use xlink:href="#DejaVuSans-41" x="119.539062"/>
    </g>
   </g>
   <g id="text_109">
    <!-- OMN -->
    <g transform="translate(488.791109 269.03172) scale(0.1 -0.1)">
     <use xlink:href="#DejaVuSans-4f"/>
     <use xlink:href="#DejaVuSans-4d" x="78.710938"/>
     <use xlink:href="#DejaVuSans-4e" x="164.990234"/>
    </g>
   </g>
   <g id="text_110">
    <!-- VNM -->
    <g transform="translate(488.614764 267.682041) scale(0.1 -0.1)">
     <use xlink:href="#DejaVuSans-56"/>
     <use xlink:href="#DejaVuSans-4e" x="68.408203"/>
     <use xlink:href="#DejaVuSans-4d" x="143.212891"/>
    </g>
   </g>
   <g id="text_111">
    <!-- ARG -->
    <g transform="translate(488.416203 266.243153) scale(0.1 -0.1)">
     <use xlink:href="#DejaVuSans-41"/>
     <use xlink:href="#DejaVuSans-52" x="68.408203"/>
     <use xlink:href="#DejaVuSans-47" x="137.890625"/>
    </g>
   </g>
   <g id="text_112">
    <!-- DZA -->
    <g transform="translate(488.202059 264.773141) scale(0.1 -0.1)">
     <use xlink:href="#DejaVuSans-44"/>
     <use xlink:href="#DejaVuSans-5a" x="77.001953"/>
     <use xlink:href="#DejaVuSans-41" x="145.507812"/>
    </g>
   </g>
   <g id="text_113">
    <!-- ZAF -->
    <g transform="translate(487.941706 263.083051) scale(0.1 -0.1)">
     <use xlink:href="#DejaVuSans-5a"/>
     <use xlink:href="#DejaVuSans-41" x="68.505859"/>
     <use xlink:href="#DejaVuSans-46" x="136.914062"/>
    </g>
   </g>
   <g id="text_114">
    <!-- ARE -->
    <g transform="translate(487.634225 261.202929) scale(0.1 -0.1)">
     <use xlink:href="#DejaVuSans-41"/>
     <use xlink:href="#DejaVuSans-52" x="68.408203"/>
     <use xlink:href="#DejaVuSans-45" x="137.890625"/>
    </g>
   </g>
   <g id="text_115">
    <!-- VEN -->
    <g transform="translate(487.300873 259.283752) scale(0.1 -0.1)">
     <use xlink:href="#DejaVuSans-56"/>
     <use xlink:href="#DejaVuSans-45" x="68.408203"/>
     <use xlink:href="#DejaVuSans-4e" x="131.591797"/>
    </g>
   </g>
   <g id="text_116">
    <!-- TUR -->
    <g transform="translate(486.884818 257.033575) scale(0.1 -0.1)">
     <use xlink:href="#DejaVuSans-54"/>
     <use xlink:href="#DejaVuSans-55" x="61.083984"/>
     <use xlink:href="#DejaVuSans-52" x="134.277344"/>
    </g>
   </g>
   <g id="text_117">
    <!-- IRN -->
    <g transform="translate(486.367021 254.419175) scale(0.1 -0.1)">
     <use xlink:href="#DejaVuSans-49"/>
     <use xlink:href="#DejaVuSans-52" x="29.492188"/>
     <use xlink:href="#DejaVuSans-4e" x="98.974609"/>
    </g>
   </g>
   <g id="text_118">
    <!-- MYS -->
    <g transform="translate(485.791555 251.711901) scale(0.1 -0.1)">
     <use xlink:href="#DejaVuSans-4d"/>
     <use xlink:href="#DejaVuSans-59" x="86.279297"/>
     <use xlink:href="#DejaVuSans-53" x="147.363281"/>
    </g>
   </g>
   <g id="text_119">
    <!-- PHL -->
    <g transform="translate(485.168778 248.974874) scale(0.1 -0.1)">
     <use xlink:href="#DejaVuSans-50"/>
     <use xlink:href="#DejaVuSans-48" x="60.302734"/>
     <use xlink:href="#DejaVuSans-4c" x="135.498047"/>
    </g>
   </g>
   <g id="text_120">
    <!-- TWN -->
    <g transform="translate(484.503155 246.232943) scale(0.1 -0.1)">
     <use xlink:href="#DejaVuSans-54"/>
     <use xlink:href="#DejaVuSans-57" x="61.083984"/>
     <use xlink:href="#DejaVuSans-4e" x="159.960938"/>
    </g>
   </g>
   <g id="text_121">
    <!-- COL -->
    <g transform="translate(483.79693 243.497057) scale(0.1 -0.1)">
     <use xlink:href="#DejaVuSans-43"/>
     <use xlink:href="#DejaVuSans-4f" x="69.824219"/>
     <use xlink:href="#DejaVuSans-4c" x="148.535156"/>
    </g>
   </g>
   <g id="text_122">
    <!-- BGD -->
    <g transform="translate(483.023426 240.673209) scale(0.1 -0.1)">
     <use xlink:href="#DejaVuSans-42"/>
     <use xlink:href="#DejaVuSans-47" x="66.853516"/>
     <use xlink:href="#DejaVuSans-44" x="144.34375"/>
    </g>
   </g>
   <g id="text_123">
    <!-- IRQ -->
    <g transform="translate(482.159591 237.700432) scale(0.1 -0.1)">
     <use xlink:href="#DejaVuSans-49"/>
     <use xlink:href="#DejaVuSans-52" x="29.492188"/>
     <use xlink:href="#DejaVuSans-51" x="98.974609"/>
    </g>
   </g>
   <g id="text_124">
    <!-- EGY -->
    <g transform="translate(481.096845 234.264152) scale(0.1 -0.1)">
     <use xlink:href="#DejaVuSans-45"/>
     <use xlink:href="#DejaVuSans-47" x="63.183594"/>
     <use xlink:href="#DejaVuSans-59" x="135.673828"/>
    </g>
   </g>
   <g id="text_125">
    <!-- NGA -->
    <g transform="translate(479.823437 230.415639) scale(0.1 -0.1)">
     <use xlink:href="#DejaVuSans-4e"/>
     <use xlink:href="#DejaVuSans-47" x="74.804688"/>
     <use xlink:href="#DejaVuSans-41" x="152.294922"/>
    </g>
   </g>
   <g id="text_126">
    <!-- PAK -->
    <g transform="translate(478.346184 226.255923) scale(0.1 -0.1)">
     <use xlink:href="#DejaVuSans-50"/>
     <use xlink:href="#DejaVuSans-41" x="53.927734"/>
     <use xlink:href="#DejaVuSans-4b" x="122.335938"/>
    </g>
   </g>
   <g id="text_127">
    <!-- GBR -->
    <g transform="translate(476.552428 221.567528) scale(0.1 -0.1)">
     <use xlink:href="#DejaVuSans-47"/>
     <use xlink:href="#DejaVuSans-42" x="77.490234"/>
     <use xlink:href="#DejaVuSans-52" x="146.09375"/>
    </g>
   </g>
   <g id="text_128">
    <!-- ISR -->
    <g transform="translate(474.376058 216.315418) scale(0.1 -0.1)">
     <use xlink:href="#DejaVuSans-49"/>
     <use xlink:href="#DejaVuSans-53" x="29.492188"/>
     <use xlink:href="#DejaVuSans-52" x="92.96875"/>
    </g>
   </g>
   <g id="text_129">
    <!-- KOR -->
    <g transform="translate(471.571681 210.116419) scale(0.1 -0.1)">
     <use xlink:href="#DejaVuSans-4b"/>
     <use xlink:href="#DejaVuSans-4f" x="60.076172"/>
     <use xlink:href="#DejaVuSans-52" x="138.787109"/>
    </g>
   </g>
   <g id="text_130">
    <!-- SAU -->
    <g transform="translate(467.667379 202.326411) scale(0.1 -0.1)">
     <use xlink:href="#DejaVuSans-53"/>
     <use xlink:href="#DejaVuSans-41" x="65.351562"/>
     <use xlink:href="#DejaVuSans-55" x="133.759766"/>
    </g>
   </g>
   <g id="text_131">
    <!-- MEX -->
    <g transform="translate(462.298534 192.836924) scale(0.1 -0.1)">
     <defs>
      <path id="DejaVuSans-58" d="M 403 4666 
L 1081 4666 
L 2241 2931 
L 3406 4666 
L 4084 4666 
L 2584 2425 
L 4184 0 
L 3506 0 
L 2194 1984 
L 872 0 
L 191 0 
L 1856 2491 
L 403 4666 
z
" transform="scale(0.015625)"/>
     </defs>
     <use xlink:href="#DejaVuSans-4d"/>
     <use xlink:href="#DejaVuSans-45" x="86.279297"/>
     <use xlink:href="#DejaVuSans-58" x="149.462891"/>
    </g>
   </g>
   <g id="text_132">
    <!-- SGP -->
    <g transform="translate(455.778625 182.745014) scale(0.1 -0.1)">
     <use xlink:href="#DejaVuSans-53"/>
     <use xlink:href="#DejaVuSans-47" x="63.476562"/>
     <use xlink:href="#DejaVuSans-50" x="140.966797"/>
    </g>
   </g>
   <g id="text_133">
    <!-- AUS -->
    <g transform="translate(446.716138 170.65192) scale(0.1 -0.1)">
     <use xlink:href="#DejaVuSans-41"/>
     <use xlink:href="#DejaVuSans-55" x="68.408203"/>
     <use xlink:href="#DejaVuSans-53" x="141.601562"/>
    </g>
   </g>
   <g id="text_134">
    <!-- BRA -->
    <g transform="translate(433.737104 156.196569) scale(0.1 -0.1)">
     <use xlink:href="#DejaVuSans-42"/>
     <use xlink:href="#DejaVuSans-52" x="68.603516"/>
     <use xlink:href="#DejaVuSans-41" x="134.085938"/>
    </g>
   </g>
   <g id="text_135">
    <!-- THA -->
    <g transform="translate(415.705218 140.141667) scale(0.1 -0.1)">
     <use xlink:href="#DejaVuSans-54"/>
     <use xlink:href="#DejaVuSans-48" x="61.083984"/>
     <use xlink:href="#DejaVuSans-41" x="136.279297"/>
    </g>
   </g>
   <g id="text_136">
    <!-- IDN -->
    <g transform="translate(389.26943 122.659854) scale(0.1 -0.1)">
     <use xlink:href="#DejaVuSans-49"/>
     <use xlink:href="#DejaVuSans-44" x="29.492188"/>
     <use xlink:href="#DejaVuSans-4e" x="106.494141"/>
    </g>
   </g>
   <g id="text_137">
    <!-- JPN -->
    <g transform="translate(329.066003 101.451582) scale(0.1 -0.1)">
     <use xlink:href="#DejaVuSans-4a"/>
     <use xlink:href="#DejaVuSans-50" x="29.492188"/>
     <use xlink:href="#DejaVuSans-4e" x="89.794922"/>
    </g>
   </g>
   <g id="text_138">
    <!-- EU -->
    <g transform="translate(188.371628 122.179422) scale(0.1 -0.1)">
     <use xlink:href="#DejaVuSans-45"/>
     <use xlink:href="#DejaVuSans-55" x="63.183594"/>
    </g>
   </g>
   <g id="text_139">
    <!-- CHN -->
    <g transform="translate(78.438257 281.604796) scale(0.1 -0.1)">
     <use xlink:href="#DejaVuSans-43"/>
     <use xlink:href="#DejaVuSans-48" x="69.824219"/>
     <use xlink:href="#DejaVuSans-4e" x="145.019531"/>
    </g>
   </g>
   <g id="text_140">
    <!-- USA -->
    <g transform="translate(193.516846 471.189435) scale(0.1 -0.1)">
     <use xlink:href="#DejaVuSans-55"/>
     <use xlink:href="#DejaVuSans-53" x="73.193359"/>
     <use xlink:href="#DejaVuSans-41" x="138.544922"/>
    </g>
   </g>
   <g id="text_141">
    <!-- IND -->
    <g transform="translate(446.343989 417.083892) scale(0.1 -0.1)">
     <use xlink:href="#DejaVuSans-49"/>
     <use xlink:href="#DejaVuSans-4e" x="29.492188"/>
     <use xlink:href="#DejaVuSans-44" x="104.296875"/>
    </g>
   </g>
   <g id="text_142">
    <!-- marginal NPV of avoiding 1tCO2e in 2020 under RCP70. Total=174.35 USD -->
    <g transform="translate(71.001563 63.12) scale(0.12 -0.12)">
     <defs>
      <path id="DejaVuSans-6d" d="M 3328 2828 
Q 3544 3216 3844 3400 
Q 4144 3584 4550 3584 
Q 5097 3584 5394 3201 
Q 5691 2819 5691 2113 
L 5691 0 
L 5113 0 
L 5113 2094 
Q 5113 2597 4934 2840 
Q 4756 3084 4391 3084 
Q 3944 3084 3684 2787 
Q 3425 2491 3425 1978 
L 3425 0 
L 2847 0 
L 2847 2094 
Q 2847 2600 2669 2842 
Q 2491 3084 2119 3084 
Q 1678 3084 1418 2786 
Q 1159 2488 1159 1978 
L 1159 0 
L 581 0 
L 581 3500 
L 1159 3500 
L 1159 2956 
Q 1356 3278 1631 3431 
Q 1906 3584 2284 3584 
Q 2666 3584 2933 3390 
Q 3200 3197 3328 2828 
z
" transform="scale(0.015625)"/>
      <path id="DejaVuSans-61" d="M 2194 1759 
Q 1497 1759 1228 1600 
Q 959 1441 959 1056 
Q 959 750 1161 570 
Q 1363 391 1709 391 
Q 2188 391 2477 730 
Q 2766 1069 2766 1631 
L 2766 1759 
L 2194 1759 
z
M 3341 1997 
L 3341 0 
L 2766 0 
L 2766 531 
Q 2569 213 2275 61 
Q 1981 -91 1556 -91 
Q 1019 -91 701 211 
Q 384 513 384 1019 
Q 384 1609 779 1909 
Q 1175 2209 1959 2209 
L 2766 2209 
L 2766 2266 
Q 2766 2663 2505 2880 
Q 2244 3097 1772 3097 
Q 1472 3097 1187 3025 
Q 903 2953 641 2809 
L 641 3341 
Q 956 3463 1253 3523 
Q 1550 3584 1831 3584 
Q 2591 3584 2966 3190 
Q 3341 2797 3341 1997 
z
" transform="scale(0.015625)"/>
      <path id="DejaVuSans-72" d="M 2631 2963 
Q 2534 3019 2420 3045 
Q 2306 3072 2169 3072 
Q 1681 3072 1420 2755 
Q 1159 2438 1159 1844 
L 1159 0 
L 581 0 
L 581 3500 
L 1159 3500 
L 1159 2956 
Q 1341 3275 1631 3429 
Q 1922 3584 2338 3584 
Q 2397 3584 2469 3576 
Q 2541 3569 2628 3553 
L 2631 2963 
z
" transform="scale(0.015625)"/>
      <path id="DejaVuSans-67" d="M 2906 1791 
Q 2906 2416 2648 2759 
Q 2391 3103 1925 3103 
Q 1463 3103 1205 2759 
Q 947 2416 947 1791 
Q 947 1169 1205 825 
Q 1463 481 1925 481 
Q 2391 481 2648 825 
Q 2906 1169 2906 1791 
z
M 3481 434 
Q 3481 -459 3084 -895 
Q 2688 -1331 1869 -1331 
Q 1566 -1331 1297 -1286 
Q 1028 -1241 775 -1147 
L 775 -588 
Q 1028 -725 1275 -790 
Q 1522 -856 1778 -856 
Q 2344 -856 2625 -561 
Q 2906 -266 2906 331 
L 2906 616 
Q 2728 306 2450 153 
Q 2172 0 1784 0 
Q 1141 0 747 490 
Q 353 981 353 1791 
Q 353 2603 747 3093 
Q 1141 3584 1784 3584 
Q 2172 3584 2450 3431 
Q 2728 3278 2906 2969 
L 2906 3500 
L 3481 3500 
L 3481 434 
z
" transform="scale(0.015625)"/>
      <path id="DejaVuSans-69" d="M 603 3500 
L 1178 3500 
L 1178 0 
L 603 0 
L 603 3500 
z
M 603 4863 
L 1178 4863 
L 1178 4134 
L 603 4134 
L 603 4863 
z
" transform="scale(0.015625)"/>
      <path id="DejaVuSans-6e" d="M 3513 2113 
L 3513 0 
L 2938 0 
L 2938 2094 
Q 2938 2591 2744 2837 
Q 2550 3084 2163 3084 
Q 1697 3084 1428 2787 
Q 1159 2491 1159 1978 
L 1159 0 
L 581 0 
L 581 3500 
L 1159 3500 
L 1159 2956 
Q 1366 3272 1645 3428 
Q 1925 3584 2291 3584 
Q 2894 3584 3203 3211 
Q 3513 2838 3513 2113 
z
" transform="scale(0.015625)"/>
      <path id="DejaVuSans-6c" d="M 603 4863 
L 1178 4863 
L 1178 0 
L 603 0 
L 603 4863 
z
" transform="scale(0.015625)"/>
      <path id="DejaVuSans-20" transform="scale(0.015625)"/>
      <path id="DejaVuSans-6f" d="M 1959 3097 
Q 1497 3097 1228 2736 
Q 959 2375 959 1747 
Q 959 1119 1226 758 
Q 1494 397 1959 397 
Q 2419 397 2687 759 
Q 2956 1122 2956 1747 
Q 2956 2369 2687 2733 
Q 2419 3097 1959 3097 
z
M 1959 3584 
Q 2709 3584 3137 3096 
Q 3566 2609 3566 1747 
Q 3566 888 3137 398 
Q 2709 -91 1959 -91 
Q 1206 -91 779 398 
Q 353 888 353 1747 
Q 353 2609 779 3096 
Q 1206 3584 1959 3584 
z
" transform="scale(0.015625)"/>
      <path id="DejaVuSans-66" d="M 2375 4863 
L 2375 4384 
L 1825 4384 
Q 1516 4384 1395 4259 
Q 1275 4134 1275 3809 
L 1275 3500 
L 2222 3500 
L 2222 3053 
L 1275 3053 
L 1275 0 
L 697 0 
L 697 3053 
L 147 3053 
L 147 3500 
L 697 3500 
L 697 3744 
Q 697 4328 969 4595 
Q 1241 4863 1831 4863 
L 2375 4863 
z
" transform="scale(0.015625)"/>
      <path id="DejaVuSans-76" d="M 191 3500 
L 800 3500 
L 1894 563 
L 2988 3500 
L 3597 3500 
L 2284 0 
L 1503 0 
L 191 3500 
z
" transform="scale(0.015625)"/>
      <path id="DejaVuSans-64" d="M 2906 2969 
L 2906 4863 
L 3481 4863 
L 3481 0 
L 2906 0 
L 2906 525 
Q 2725 213 2448 61 
Q 2172 -91 1784 -91 
Q 1150 -91 751 415 
Q 353 922 353 1747 
Q 353 2572 751 3078 
Q 1150 3584 1784 3584 
Q 2172 3584 2448 3432 
Q 2725 3281 2906 2969 
z
M 947 1747 
Q 947 1113 1208 752 
Q 1469 391 1925 391 
Q 2381 391 2643 752 
Q 2906 1113 2906 1747 
Q 2906 2381 2643 2742 
Q 2381 3103 1925 3103 
Q 1469 3103 1208 2742 
Q 947 2381 947 1747 
z
" transform="scale(0.015625)"/>
      <path id="DejaVuSans-31" d="M 794 531 
L 1825 531 
L 1825 4091 
L 703 3866 
L 703 4441 
L 1819 4666 
L 2450 4666 
L 2450 531 
L 3481 531 
L 3481 0 
L 794 0 
L 794 531 
z
" transform="scale(0.015625)"/>
      <path id="DejaVuSans-74" d="M 1172 4494 
L 1172 3500 
L 2356 3500 
L 2356 3053 
L 1172 3053 
L 1172 1153 
Q 1172 725 1289 603 
Q 1406 481 1766 481 
L 2356 481 
L 2356 0 
L 1766 0 
Q 1100 0 847 248 
Q 594 497 594 1153 
L 594 3053 
L 172 3053 
L 172 3500 
L 594 3500 
L 594 4494 
L 1172 4494 
z
" transform="scale(0.015625)"/>
      <path id="DejaVuSans-32" d="M 1228 531 
L 3431 531 
L 3431 0 
L 469 0 
L 469 531 
Q 828 903 1448 1529 
Q 2069 2156 2228 2338 
Q 2531 2678 2651 2914 
Q 2772 3150 2772 3378 
Q 2772 3750 2511 3984 
Q 2250 4219 1831 4219 
Q 1534 4219 1204 4116 
Q 875 4013 500 3803 
L 500 4441 
Q 881 4594 1212 4672 
Q 1544 4750 1819 4750 
Q 2544 4750 2975 4387 
Q 3406 4025 3406 3419 
Q 3406 3131 3298 2873 
Q 3191 2616 2906 2266 
Q 2828 2175 2409 1742 
Q 1991 1309 1228 531 
z
" transform="scale(0.015625)"/>
      <path id="DejaVuSans-65" d="M 3597 1894 
L 3597 1613 
L 953 1613 
Q 991 1019 1311 708 
Q 1631 397 2203 397 
Q 2534 397 2845 478 
Q 3156 559 3463 722 
L 3463 178 
Q 3153 47 2828 -22 
Q 2503 -91 2169 -91 
Q 1331 -91 842 396 
Q 353 884 353 1716 
Q 353 2575 817 3079 
Q 1281 3584 2069 3584 
Q 2775 3584 3186 3129 
Q 3597 2675 3597 1894 
z
M 3022 2063 
Q 3016 2534 2758 2815 
Q 2500 3097 2075 3097 
Q 1594 3097 1305 2825 
Q 1016 2553 972 2059 
L 3022 2063 
z
" transform="scale(0.015625)"/>
      <path id="DejaVuSans-30" d="M 2034 4250 
Q 1547 4250 1301 3770 
Q 1056 3291 1056 2328 
Q 1056 1369 1301 889 
Q 1547 409 2034 409 
Q 2525 409 2770 889 
Q 3016 1369 3016 2328 
Q 3016 3291 2770 3770 
Q 2525 4250 2034 4250 
z
M 2034 4750 
Q 2819 4750 3233 4129 
Q 3647 3509 3647 2328 
Q 3647 1150 3233 529 
Q 2819 -91 2034 -91 
Q 1250 -91 836 529 
Q 422 1150 422 2328 
Q 422 3509 836 4129 
Q 1250 4750 2034 4750 
z
" transform="scale(0.015625)"/>
      <path id="DejaVuSans-75" d="M 544 1381 
L 544 3500 
L 1119 3500 
L 1119 1403 
Q 1119 906 1312 657 
Q 1506 409 1894 409 
Q 2359 409 2629 706 
Q 2900 1003 2900 1516 
L 2900 3500 
L 3475 3500 
L 3475 0 
L 2900 0 
L 2900 538 
Q 2691 219 2414 64 
Q 2138 -91 1772 -91 
Q 1169 -91 856 284 
Q 544 659 544 1381 
z
M 1991 3584 
L 1991 3584 
z
" transform="scale(0.015625)"/>
      <path id="DejaVuSans-37" d="M 525 4666 
L 3525 4666 
L 3525 4397 
L 1831 0 
L 1172 0 
L 2766 4134 
L 525 4134 
L 525 4666 
z
" transform="scale(0.015625)"/>
      <path id="DejaVuSans-2e" d="M 684 794 
L 1344 794 
L 1344 0 
L 684 0 
L 684 794 
z
" transform="scale(0.015625)"/>
      <path id="DejaVuSans-3d" d="M 678 2906 
L 4684 2906 
L 4684 2381 
L 678 2381 
L 678 2906 
z
M 678 1631 
L 4684 1631 
L 4684 1100 
L 678 1100 
L 678 1631 
z
" transform="scale(0.015625)"/>
      <path id="DejaVuSans-34" d="M 2419 4116 
L 825 1625 
L 2419 1625 
L 2419 4116 
z
M 2253 4666 
L 3047 4666 
L 3047 1625 
L 3713 1625 
L 3713 1100 
L 3047 1100 
L 3047 0 
L 2419 0 
L 2419 1100 
L 313 1100 
L 313 1709 
L 2253 4666 
z
" transform="scale(0.015625)"/>
      <path id="DejaVuSans-33" d="M 2597 2516 
Q 3050 2419 3304 2112 
Q 3559 1806 3559 1356 
Q 3559 666 3084 287 
Q 2609 -91 1734 -91 
Q 1441 -91 1130 -33 
Q 819 25 488 141 
L 488 750 
Q 750 597 1062 519 
Q 1375 441 1716 441 
Q 2309 441 2620 675 
Q 2931 909 2931 1356 
Q 2931 1769 2642 2001 
Q 2353 2234 1838 2234 
L 1294 2234 
L 1294 2753 
L 1863 2753 
Q 2328 2753 2575 2939 
Q 2822 3125 2822 3475 
Q 2822 3834 2567 4026 
Q 2313 4219 1838 4219 
Q 1578 4219 1281 4162 
Q 984 4106 628 3988 
L 628 4550 
Q 988 4650 1302 4700 
Q 1616 4750 1894 4750 
Q 2613 4750 3031 4423 
Q 3450 4097 3450 3541 
Q 3450 3153 3228 2886 
Q 3006 2619 2597 2516 
z
" transform="scale(0.015625)"/>
      <path id="DejaVuSans-35" d="M 691 4666 
L 3169 4666 
L 3169 4134 
L 1269 4134 
L 1269 2991 
Q 1406 3038 1543 3061 
Q 1681 3084 1819 3084 
Q 2600 3084 3056 2656 
Q 3513 2228 3513 1497 
Q 3513 744 3044 326 
Q 2575 -91 1722 -91 
Q 1428 -91 1123 -41 
Q 819 9 494 109 
L 494 744 
Q 775 591 1075 516 
Q 1375 441 1709 441 
Q 2250 441 2565 725 
Q 2881 1009 2881 1497 
Q 2881 1984 2565 2268 
Q 2250 2553 1709 2553 
Q 1456 2553 1204 2497 
Q 953 2441 691 2322 
L 691 4666 
z
" transform="scale(0.015625)"/>
     </defs>
     <use xlink:href="#DejaVuSans-6d"/>
     <use xlink:href="#DejaVuSans-61" x="97.412109"/>
     <use xlink:href="#DejaVuSans-72" x="158.691406"/>
     <use xlink:href="#DejaVuSans-67" x="198.054688"/>
     <use xlink:href="#DejaVuSans-69" x="261.53125"/>
     <use xlink:href="#DejaVuSans-6e" x="289.314453"/>
     <use xlink:href="#DejaVuSans-61" x="352.693359"/>
     <use xlink:href="#DejaVuSans-6c" x="413.972656"/>
     <use xlink:href="#DejaVuSans-20" x="441.755859"/>
     <use xlink:href="#DejaVuSans-4e" x="473.542969"/>
     <use xlink:href="#DejaVuSans-50" x="548.347656"/>
     <use xlink:href="#DejaVuSans-56" x="608.650391"/>
     <use xlink:href="#DejaVuSans-20" x="677.058594"/>
     <use xlink:href="#DejaVuSans-6f" x="708.845703"/>
     <use xlink:href="#DejaVuSans-66" x="770.027344"/>
     <use xlink:href="#DejaVuSans-20" x="805.232422"/>
     <use xlink:href="#DejaVuSans-61" x="837.019531"/>
     <use xlink:href="#DejaVuSans-76" x="898.298828"/>
     <use xlink:href="#DejaVuSans-6f" x="957.478516"/>
     <use xlink:href="#DejaVuSans-69" x="1018.660156"/>
     <use xlink:href="#DejaVuSans-64" x="1046.443359"/>
     <use xlink:href="#DejaVuSans-69" x="1109.919922"/>
     <use xlink:href="#DejaVuSans-6e" x="1137.703125"/>
     <use xlink:href="#DejaVuSans-67" x="1201.082031"/>
     <use xlink:href="#DejaVuSans-20" x="1264.558594"/>
     <use xlink:href="#DejaVuSans-31" x="1296.345703"/>
     <use xlink:href="#DejaVuSans-74" x="1359.96875"/>
     <use xlink:href="#DejaVuSans-43" x="1399.177734"/>
     <use xlink:href="#DejaVuSans-4f" x="1469.001953"/>
     <use xlink:href="#DejaVuSans-32" x="1547.712891"/>
     <use xlink:href="#DejaVuSans-65" x="1611.335938"/>
     <use xlink:href="#DejaVuSans-20" x="1672.859375"/>
     <use xlink:href="#DejaVuSans-69" x="1704.646484"/>
     <use xlink:href="#DejaVuSans-6e" x="1732.429688"/>
     <use xlink:href="#DejaVuSans-20" x="1795.808594"/>
     <use xlink:href="#DejaVuSans-32" x="1827.595703"/>
     <use xlink:href="#DejaVuSans-30" x="1891.21875"/>
     <use xlink:href="#DejaVuSans-32" x="1954.841797"/>
     <use xlink:href="#DejaVuSans-30" x="2018.464844"/>
     <use xlink:href="#DejaVuSans-20" x="2082.087891"/>
     <use xlink:href="#DejaVuSans-75" x="2113.875"/>
     <use xlink:href="#DejaVuSans-6e" x="2177.253906"/>
     <use xlink:href="#DejaVuSans-64" x="2240.632812"/>
     <use xlink:href="#DejaVuSans-65" x="2304.109375"/>
     <use xlink:href="#DejaVuSans-72" x="2365.632812"/>
     <use xlink:href="#DejaVuSans-20" x="2406.746094"/>
     <use xlink:href="#DejaVuSans-52" x="2438.533203"/>
     <use xlink:href="#DejaVuSans-43" x="2503.015625"/>
     <use xlink:href="#DejaVuSans-50" x="2572.839844"/>
     <use xlink:href="#DejaVuSans-37" x="2633.142578"/>
     <use xlink:href="#DejaVuSans-30" x="2696.765625"/>
     <use xlink:href="#DejaVuSans-2e" x="2760.388672"/>
     <use xlink:href="#DejaVuSans-20" x="2792.175781"/>
     <use xlink:href="#DejaVuSans-54" x="2823.962891"/>
     <use xlink:href="#DejaVuSans-6f" x="2868.046875"/>
     <use xlink:href="#DejaVuSans-74" x="2929.228516"/>
     <use xlink:href="#DejaVuSans-61" x="2968.4375"/>
     <use xlink:href="#DejaVuSans-6c" x="3029.716797"/>
     <use xlink:href="#DejaVuSans-3d" x="3057.5"/>
     <use xlink:href="#DejaVuSans-31" x="3141.289062"/>
     <use xlink:href="#DejaVuSans-37" x="3204.912109"/>
     <use xlink:href="#DejaVuSans-34" x="3268.535156"/>
     <use xlink:href="#DejaVuSans-2e" x="3332.158203"/>
     <use xlink:href="#DejaVuSans-33" x="3363.945312"/>
     <use xlink:href="#DejaVuSans-35" x="3427.568359"/>
     <use xlink:href="#DejaVuSans-20" x="3491.191406"/>
     <use xlink:href="#DejaVuSans-55" x="3522.978516"/>
     <use xlink:href="#DejaVuSans-53" x="3596.171875"/>
     <use xlink:href="#DejaVuSans-44" x="3659.648438"/>
    </g>
   </g>
  </g>
 </g>
</svg>
